<svg xmlns="http://www.w3.org/2000/svg" width="927.09" height="385.65" viewBox="0 0 927.09 385.65" xmlns:xlink="http://www.w3.org/1999/xlink">
<defs>
	<g id="windows1"><path d="M280,439.07c-3.42,0-6,3.4-6,7.58V465h12V446.65C286,442.47,283.42,439.07,280,439.07Z" transform="translate(-37.64 -307.66)" style="fill:#fff"/><path d="M294,439.07c-3.42,0-6,3.4-6,7.58V465h12V446.65C300,442.47,297.42,439.07,294,439.07Z" transform="translate(-37.64 -307.66)" style="fill:#fff"/><path d="M287.4,478.93c-7.43,0-13.45,5.65-13.45,12.41,0,.47-.26,18.66-.26,18.66H301s-.13-18.19-.13-18.66C300.85,484.59,294.83,478.93,287.4,478.93Z" transform="translate(-37.64 -307.66)" style="fill:#fff"/></g>
	<g id="mass"><polygon points="319.36 88.9 319.36 74.34 313.36 74.34 313.36 82.88 299 70.06 284.36 83.13 284.36 74.34 278.36 74.34 278.36 88.93 278.36 88.94 278.36 222.34 319.36 222.34 319.36 88.94 319.36 88.9" style="fill:#fdfbe1"/> <path d="M329,439.07c-3.42,0-6,3.4-6,7.58V465h12V446.65C335,442.47,332.42,439.07,329,439.07Z" transform="translate(-37.64 -307.66)" style="fill:#f5df7b"/><path d="M343,439.07c-3.42,0-6,3.4-6,7.58V465h12V446.65C349,442.47,346.42,439.07,343,439.07Z" transform="translate(-37.64 -307.66)" style="fill:#f5df7b"/> <path d="M349.86,491.34c0-6.75-6-12.47-13.45-12.47S323,484.55,323,491.3c0,.47-.1,18.7-.1,18.7h27.29S349.86,491.81,349.86,491.34Z" transform="translate(-37.64 -307.66)" style="fill:#f5df7b"/><path d="M350,406.08a13.54,13.54,0,0,0-27.08,0c0,.27-.1,17.88-.1,17.88h27.29S350,406.35,350,406.08Z" transform="translate(-37.64 -307.66)" style="fill:#f5df7b"/> <rect x="282.9" y="100.84" width="31.93" height="4.59" style="fill:#fdfbe1"/></g>
	<path id="window2" d="M473.5,381.08c-4,0-7.5,3.93-7.5,8.78V412h15V389.86C481,385,477.46,381.08,473.5,381.08Z" transform="translate(-37.64 -307.66)" style="fill:#fff"/>
	<g id="windows3"><path d="M436.5,431.56c-4,0-7.5,3.93-7.5,8.78V465h15V440.34C444,435.49,440.46,431.56,436.5,431.56Z" transform="translate(-37.64 -307.66)" style="fill:#f5df7b"/><rect x="391.5" y="163" width="15" height="21" style="fill:#f5df7b"/></g>
	<g id="shrubs"><circle cx="227.75" cy="217.9" r="7.89" style="fill:#f6906b"/><circle cx="242.16" cy="217.9" r="7.89" style="fill:#f6906b"/><circle cx="256.56" cy="217.9" r="7.89" style="fill:#f6906b"/><circle cx="270.97" cy="217.9" r="7.89" style="fill:#f6906b"/><circle cx="285.38" cy="217.9" r="7.89" style="fill:#f6906b"/><circle cx="299.79" cy="217.9" r="7.89" style="fill:#f6906b"/><circle cx="314.2" cy="217.9" r="7.89" style="fill:#f6906b"/></g>
	<g id="fountain"><path d="M195.08,528.44C195.08,498.12,191.46,412,172,412c-8,0-12.65,18.67-12.65,27.91h-8.63c0-9.44-4.62-27.91-12.65-27.91C118.59,412,115,498.12,115,528.44Z" transform="translate(-37.64 -307.66)" style="fill:#b9ddf3"/><rect x="53.05" y="206.73" width="128.48" height="16.06" style="fill:#f8eaa2"/><rect x="111.27" y="140.48" width="14.05" height="80.3" style="fill:#f8eaa2"/><rect x="49.03" y="200.71" width="136.51" height="6.02" style="fill:#fdfbe1"/><rect x="101.23" y="162.56" width="34.13" height="24.09" style="fill:#fdfbe1"/><rect x="107.25" y="128.44" width="22.08" height="20.08" style="fill:#fdfbe1"/></g>
	<g id="tree"><polygon points="202.26 188.17 202.26 188.17 183.65 222.37 220.88 222.37 202.26 188.17" style="fill:#d35a51"/><polygon points="202.26 176.77 202.26 176.77 187.37 203.37 217.15 203.37 202.26 176.77" style="fill:#d35a51"/><polygon points="202.26 165.37 202.26 165.37 192.91 184.37 211.61 184.37 202.26 165.37" style="fill:#d35a51"/></g>
</defs>
	
	<path d="M963.8,530s-27.45-82.91-57.14-82.91c-26,0-29.31,20.9-44.55,20.9s-20-22.34-46.91-21.2c-24.88,1.06-29.24,20.21-43.93,21.48-14.73-1.31-19-21.88-44-21.84-27,0-31.67,21.37-46.91,21.37s-18.58-21.1-44.55-21.1h-1.2c-26,0-29.31,21.1-44.55,21.1s-20-22.24-46.91-21.1c-24.88,1.06-29.24,20.26-43.93,21.53-14.73-1.31-19-21.85-44-21.81-27,0-31.67,21.38-46.91,21.38s-18.58-21.1-44.55-21.1h-1.06c-26,0-29.31,21.1-44.55,21.1s-20-22.24-46.91-21.1C246.34,447.76,242,467,227.29,468.23c-14.73-1.31-19-21.85-44-21.81-27,0-31.67,21.38-46.91,21.38s-18.58-20.71-44.55-20.71C62.13,447.09,38,530,38,530Z" transform="translate(-37.64 -307.66)" style="fill:#f6906b"/><rect x="221.22" y="63.04" width="484.1" height="51.08" style="fill:#919191"/>

	<rect x="221.23" y="114.12" width="484.09" height="108.26" style="fill:#f5df7b"/><polygon points="462.36 33.02 374.36 114.12 374.36 222.34 550.36 222.34 550.36 114.12 462.36 33.02" style="fill:#f5df7b"/><polygon points="541.36 96.34 541.36 114.34 384.36 114.34 384.36 96.34 374.36 96.34 374.36 114.12 374.36 114.19 374.36 222.34 551.36 222.34 551.36 114.19 551.36 114.12 551.36 96.34 541.36 96.34" style="fill:#fdfbe1"/><polygon points="462.86 127.7 422.36 157.56 422.36 222.34 503.36 222.34 503.36 157.56 462.86 127.7" style="fill:#f8eaa2"/><rect x="444.39" y="176.36" width="37.76" height="46.02" style="fill:#919191"/><circle cx="463.27" cy="176.36" r="18.88" style="fill:#919191"/>

	<use xlink:href="#windows3" />
	<use xlink:href="#windows3" x="128" />

	<use xlink:href="#mass" />
	<use xlink:href="#mass" x="330" />

	<use xlink:href="#shrubs" />
	<use xlink:href="#shrubs" x="101" />
	<use xlink:href="#shrubs" x="283" />
	<use xlink:href="#shrubs" x="384" />
	
	<use xlink:href="#window2" />
	<use xlink:href="#window2" x="18" />
	<use xlink:href="#window2" x="36" />
	<use xlink:href="#window2" x="54" />
	
	<use xlink:href="#windows1" />
	<use xlink:href="#windows1" x="97" />
	<use xlink:href="#windows1" x="330" />
	<use xlink:href="#windows1" x="427" />

	

	<rect x="422.14" y="141.47" width="7.33" height="29.81" style="fill:#f8eaa2"/><rect x="496.16" y="141.47" width="7.33" height="29.81" style="fill:#f8eaa2"/><rect x="450.28" y="523.68" width="28.88" height="10.66" transform="translate(956.1 -243.36) rotate(90)" style="fill:#acacac"/><rect x="522.71" y="523.68" width="28.88" height="10.66" transform="translate(1028.52 -315.79) rotate(90)" style="fill:#acacac"/><rect x="432.41" y="225.79" width="61.71" height="9.58" style="fill:#ccc"/><rect x="226.36" y="217.9" width="188.69" height="6.44" style="fill:#f6906b"/><rect x="510" y="217.9" width="188.69" height="6.44" style="fill:#f6906b"/>

	<use xlink:href="#fountain" />
	<use xlink:href="#fountain" x="697" />

	<path d="M744,530H38c15,64.84,67.5,113.38,131.18,118.54v-.18l86.26.1V627.23h116.9c37.58,14.26,81.54,22.5,128.54,22.5s91-8.24,128.54-22.5H741.78V649c47.47.06,78.95.21,79.71.21,68.81,0,126.44-50.95,142.31-119.26Z" transform="translate(-37.64 -307.66)" style="fill:#f9af9a"/><path d="M199.91,690.41c-43.4,0-84.17-16.37-114.79-46.82A160.61,160.61,0,0,1,37.64,530H90.28a106.4,106.4,0,0,0,32,76.26A109.24,109.24,0,0,0,199.91,638c22.07,0,33.07-7.1,49.72-17.69,22.09-14.06,49.58-31.6,104.84-32l.35,52.62c-40.13.27-57.18,11.11-76.94,23.68C258.87,676.71,237.32,690.41,199.91,690.41Z" transform="translate(-37.64 -307.66)" style="fill:#feeadc"/><path d="M500.19,688.62c-40.28,0-66.05-14.65-89-27.58C391.29,649.79,375,640.9,351,640.9V588.26c38,0,63.73,14.31,86.11,26.94C456.86,626.35,473.83,636,500.28,636c24.62,0,41.57-8.74,63.36-19.79,26.23-13.31,55.36-28.4,101.36-28.4v52.64c-33,0-54.58,11-77.58,22.7-11.86,6-24,12.25-37.89,17.05A148.12,148.12,0,0,1,500.19,688.62Z" transform="translate(-37.64 -307.66)" style="fill:#feeadc"/><path d="M822,689.94c-38.65,0-62.34-14.12-83.05-26.58-20.47-12.31-38-22.94-74-22.94V587.78c51,0,78.54,16.89,101.11,30.47,18.39,11.06,31.78,19,55.82,19,27.84,0,49.34-6.9,63.79-21.35C903.18,598.49,912.08,569,912.08,530h52.64c0,53-14,95.49-41.74,123.18C898.31,677.85,864.34,689.94,822,689.94Z" transform="translate(-37.64 -307.66)" style="fill:#feeadc"/><path d="M243,329.22a11.5,11.5,0,0,0-16.89-7.93,15.17,15.17,0,0,0-28.07.85,9.66,9.66,0,0,0-2.94-.47,9.49,9.49,0,0,0-9.34,7.46,9,9,0,0,0-.21,1.88c0,.34,0,2.06,0,2.19.13.38.51,1.8,1,1.8H242c.47,0,.85-1.42,1-1.84A15.19,15.19,0,0,0,243,329.22Z" transform="translate(-37.64 -307.66)" style="fill:#feeadc"/><path d="M113.23,352.05A9.66,9.66,0,0,0,99,345.39a12.74,12.74,0,0,0-23.58.72,8.12,8.12,0,0,0-2.47-.39A8,8,0,0,0,65.14,352a7.59,7.59,0,0,0-.18,1.58c0,.29,0,1.78,0,1.88.11.32.43,1.56.82,1.56H112.4c.39,0,.72-1.24.82-1.6A13.13,13.13,0,0,0,113.23,352.05Z" transform="translate(-37.64 -307.66)" style="fill:#feeadc"/><path d="M747,328.06a13.86,13.86,0,0,1,20.36-9.56,18.28,18.28,0,0,1,33.82,1,11.64,11.64,0,0,1,3.55-.57A11.44,11.44,0,0,1,816,328a10.89,10.89,0,0,1,.26,2.26c0,.41,0,2.47-.05,2.62-.15.46-.62,2.16-1.18,2.16H748.22c-.57,0-1-1.7-1.18-2.21C746.73,332.22,746.93,328.78,747,328.06Z" transform="translate(-37.64 -307.66)" style="fill:#feeadc"/><path d="M894.36,340.47a9.66,9.66,0,0,1,14.19-6.66,12.74,12.74,0,0,1,23.58.72,8.12,8.12,0,0,1,2.47-.39,8,8,0,0,1,7.85,6.27,7.59,7.59,0,0,1,.18,1.58c0,.29,0,1.57,0,1.67-.11.32-.43,1.35-.82,1.35H895.18c-.39,0-.72-1-.82-1.39A11.54,11.54,0,0,1,894.36,340.47Z" transform="translate(-37.64 -307.66)" style="fill:#feeadc"/><polygon points="42.81 327.6 42.81 327.6 23.34 361.8 62.28 361.8 42.81 327.6" style="fill:#f6906b"/><polygon points="42.81 316.2 42.81 316.2 27.23 342.8 58.39 342.8 42.81 316.2" style="fill:#f6906b"/><polygon points="42.81 304.81 42.81 304.81 33.03 323.8 52.6 323.8 42.81 304.81" style="fill:#f6906b"/><polygon points="54.66 342.74 54.66 342.74 35.18 376.94 74.13 376.94 54.66 342.74" style="fill:#f6906b"/><polygon points="54.66 331.34 54.66 331.34 39.08 357.94 70.23 357.94 54.66 331.34" style="fill:#f6906b"/><polygon points="54.66 319.94 54.66 319.94 44.87 338.94 64.44 338.94 54.66 319.94" style="fill:#f6906b"/><rect x="57.02" y="286.32" width="83.76" height="99.01" style="fill:#f8eaa2"/><rect x="140.84" y="340.82" width="57.31" height="44.51" style="fill:#f5df7b"/><rect x="157.52" y="368.35" width="11.16" height="16.97" style="fill:#fdfbe1"/><rect x="140.77" y="340.82" width="57.38" height="4.17" style="fill:#f5df7b"/><rect x="171.07" y="368.35" width="11.16" height="16.97" style="fill:#fdfbe1"/>

	<rect x="67" y="295" width="27" height="20" fill="#fdfbe1" />
	<rect x="103" y="295" width="27" height="20" fill="#fdfbe1" />
	<rect x="67" y="323" width="27" height="20" fill="#fdfbe1" />
	<rect x="103" y="323" width="27" height="20" fill="#fdfbe1" />
	<rect x="67" y="351" width="27" height="20" fill="#fdfbe1" />
	<rect x="103" y="351" width="27" height="20" fill="#fdfbe1" />

<rect x="149.17" y="352" width="11.04" height="10.67" style="fill:#fdfbe1"/><rect x="164.04" y="352" width="11.04" height="10.67" style="fill:#fdfbe1"/><rect x="178.58" y="352" width="11.04" height="10.67" style="fill:#fdfbe1"/>

<use xlink:href="#tree" />
<use xlink:href="#tree" x="526" />

<polygon points="883.8 327.6 883.8 327.6 903.27 361.8 864.33 361.8 883.8 327.6" style="fill:#f6906b"/><polygon points="883.8 316.2 883.8 316.2 899.38 342.8 868.22 342.8 883.8 316.2" style="fill:#f6906b"/><polygon points="883.8 304.81 883.8 304.81 893.59 323.8 874.02 323.8 883.8 304.81" style="fill:#f6906b"/><polygon points="870.64 342.74 870.64 342.74 890.11 376.94 851.17 376.94 870.64 342.74" style="fill:#f6906b"/><polygon points="870.64 331.34 870.64 331.34 886.22 357.94 855.06 357.94 870.64 331.34" style="fill:#f6906b"/><polygon points="870.64 319.94 870.64 319.94 880.42 338.94 860.86 338.94 870.64 319.94" style="fill:#f6906b"/><rect x="832.94" y="340.82" width="36.19" height="44.51" style="fill:#f5df7b"/><rect x="730.98" y="340.82" width="35.75" height="44.51" style="fill:#f5df7b"/><rect x="765.95" y="285" width="67.12" height="100.33" style="fill:#f8eaa2"/><polygon points="765.94 285.3 833.06 285.3 799.5 267.67 765.94 285.3" style="fill:#f5df7b"/><circle cx="799.53" cy="315.05" r="17.55" style="fill:#fdfbe1"/><circle cx="799.7" cy="314.81" r="2.27" style="fill:#f5df7b"/><rect x="798.38" y="304.14" width="1.86" height="10.2" style="fill:#f5df7b"/><rect x="842.14" y="619.56" width="1.82" height="12.29" transform="translate(1768.81 -99.2) rotate(120)" style="fill:#f5df7b"/><rect x="786.88" y="368.13" width="25.25" height="17.52" style="fill:#fdfbe1"/>
<path d="M849.77,674.36a12.63,12.63,0,0,1-25.25,0,12.63,12.63,0,1,1,25.25,0Z" transform="translate(-37.64 -307.66)" style="fill:#fdfbe1"/>
<polygon points="853.89 347.35 843.36 347.35 843.36 356.62 843.36 364.35 849.89 364.35 853.89 364.35 860.36 364.35 860.36 356.62 860.36 353.43 860.36 347.35 853.89 347.35" style="fill:#fdfbe1"/><polygon points="750.58 347.35 739.36 347.35 739.36 356.62 739.36 364.35 746.58 364.35 750.58 364.35 756.36 364.35 756.36 356.62 756.36 353.43 756.36 347.35 750.58 347.35" style="fill:#fdfbe1"/><ellipse cx="591.27" cy="260.31" rx="4.9" ry="5.12" style="fill:#fff"/><path d="M562.91,592.4a1.53,1.53,0,0,1-.64-2.92c.45-.21,10.76-5.19,5.65-17.77a1.53,1.53,0,1,1,2.83-1.15c6.22,15.33-7.07,21.63-7.21,21.7A1.52,1.52,0,0,1,562.91,592.4Z" transform="translate(-37.64 -307.66)" style="fill:#feeadc"/><path d="M574.68,593a1.53,1.53,0,0,1-1.42-2.08c.17-.43,3.84-10.27-3.84-18.19a1.53,1.53,0,1,1,2.19-2.13c9.08,9.37,4.68,20.95,4.49,21.44A1.53,1.53,0,0,1,574.68,593Z" transform="translate(-37.64 -307.66)" style="fill:#feeadc"/><polygon points="535.33 265.83 535.95 261.81 529.91 261.22 530.77 273.92 535.95 273.36 535.33 265.83" style="fill:#f8eaa2"/><circle cx="534.08" cy="242.03" r="3.88" style="fill:#feeadc"/><polygon points="537.42 261.52 529.91 261.22 536.12 274.35 540.65 272.98 537.42 261.52" style="fill:#f5df7b"/><polygon points="535.88 246.59 532.28 246.59 532.93 244.05 535.22 244.05 535.88 246.59" style="fill:#feeadc"/><path d="M569.64,568.92a1.35,1.35,0,0,1-1-.39c-2.95-2.88-4.16-5.63-3.63-8.17.77-3.6,4.81-5.14,5-5.2a1.36,1.36,0,0,1,1,2.54s-2.83,1.1-3.28,3.24c-.41,1.95,1.34,4.15,2.87,5.65a1.36,1.36,0,0,1-1,2.33Z" transform="translate(-37.64 -307.66)" style="fill:#feeadc"/><path d="M570.12,555.81a1.74,1.74,0,0,0-2.59.41c-.94,1.09-1.46,1.79-1.46,1.79l1.16.84,1.52,1.34,1.27-1.72S571.27,557,570.12,555.81Z" transform="translate(-37.64 -307.66)" style="fill:#5475b9"/><path d="M568,556.63s0-3.1,4-3.12h0c3,0,3,3.35,3,3.35V569h-7.64Z" transform="translate(-37.64 -307.66)" style="fill:#b9ddf3"/><path d="M584.9,566.63c-10.63,0-14.39-7.43-14.55-7.77a1.36,1.36,0,0,1,2.44-1.2c.15.31,3.73,7.19,14.29,6.14a1.36,1.36,0,1,1,.27,2.7C586.49,566.59,585.68,566.63,584.9,566.63Z" transform="translate(-37.64 -307.66)" style="fill:#feeadc"/><polygon points="524.47 282.06 527.3 279.65 529.91 281.91 526.34 284.76 524.36 283.69 524.47 282.06" style="fill:#eef9fe"/><path d="M571.23,555.52a1.64,1.64,0,0,0-1.34,2c.23,1.19.43,1.89.43,1.89l1.51-.34,1.86-.42-.5-1.72A1.75,1.75,0,0,0,571.23,555.52Z" transform="translate(-37.64 -307.66)" style="fill:#5475b9"/><polygon points="526.98 287.15 522.7 283.8 524.54 281.46 528.82 284.8 526.98 287.15" style="fill:#b9ddf3"/><path d="M567.14,593.45a1.27,1.27,0,0,1-1.12,1.79,2.32,2.32,0,0,1-2.24-1.53,1.27,1.27,0,0,1,1.12-1.79A2.32,2.32,0,0,1,567.14,593.45Z" transform="translate(-37.64 -307.66)" style="fill:#b9ddf3"/><polygon points="534.91 285.37 535.58 282.42 539.02 282.65 537.88 287.08 535.66 287.42 534.91 285.37" style="fill:#eef9fe"/><polygon points="539.9 288.65 534.49 288.24 534.72 285.27 540.14 285.69 539.9 288.65" style="fill:#b9ddf3"/><path d="M578.89,593.78a1.27,1.27,0,0,1,.06,2.11,2.32,2.32,0,0,1-2.71,0,1.27,1.27,0,0,1-.06-2.11A2.32,2.32,0,0,1,578.89,593.78Z" transform="translate(-37.64 -307.66)" style="fill:#b9ddf3"/><path d="M661.73,622.59a1.52,1.52,0,0,1-.63-.14c-.13-.06-13.43-6.36-7.21-21.7a1.53,1.53,0,1,1,2.83,1.15c-5.11,12.58,5.21,17.56,5.65,17.77a1.53,1.53,0,0,1-.64,2.92Z" transform="translate(-37.64 -307.66)" style="fill:#9c886d"/><path d="M650,623.2a1.53,1.53,0,0,1-1.42-1c-.19-.49-4.59-12.07,4.49-21.44a1.53,1.53,0,1,1,2.19,2.13c-7.73,8-3.88,18.09-3.84,18.19A1.53,1.53,0,0,1,650,623.2Z" transform="translate(-37.64 -307.66)" style="fill:#9c886d"/><polygon points="614.04 296.02 613.42 292 619.65 291.76 618.45 304.46 614.18 305.12 614.04 296.02" style="fill:#5475b9"/><circle cx="615.29" cy="272.05" r="3.88" style="fill:#9c886d"/><polygon points="611.95 291.71 619.46 291.41 612.93 305.48 608.91 304.97 611.95 291.71" style="fill:#8cc8ed"/><polygon points="614.18 276.77 616.31 276.77 616.43 274.24 614.15 274.24 614.18 276.77" style="fill:#9c886d"/><path d="M653.41,588c-3.32,0-8.84-1.37-10.33-6.76a1.36,1.36,0,1,1,2.62-.72c1.43,5.18,8,4.77,8.33,4.75a1.36,1.36,0,0,1,.2,2.71C654,588,653.7,588,653.41,588Z" transform="translate(-37.64 -307.66)" style="fill:#9c886d"/><path d="M656.29,588.81a1.74,1.74,0,0,1-2.57.51c-1.26-.7-3.07-1.63-3.07-1.63l1.1-1.87.92-1.38,2.61,1.92S657,587.32,656.29,588.81Z" transform="translate(-37.64 -307.66)" style="fill:#f6906b"/><path d="M656.95,587.23s-.75-3.5-4.23-3.53h0c-3.12.39-3.24,4.11-3.24,4.11L649.23,600h8.63Z" transform="translate(-37.64 -307.66)" style="fill:#7a7a7a"/><path d="M647.52,590.78a7.84,7.84,0,0,1-3.59-.82c-2.58-1.31-4.21-4.07-4.86-8.2a1.36,1.36,0,1,1,2.68-.42c.5,3.22,1.65,5.31,3.41,6.2,2.63,1.34,6-.33,6.07-.35a1.36,1.36,0,0,1,1.24,2.42A11.94,11.94,0,0,1,647.52,590.78Z" transform="translate(-37.64 -307.66)" style="fill:#9c886d"/><polygon points="624.9 312.25 622.07 309.84 619.46 312.1 623.03 314.95 625 313.88 624.9 312.25" style="fill:#eef9fe"/><path d="M654.18,586.87a1.64,1.64,0,0,1-.46,2.35c-1,.67-2.42,1.51-2.42,1.51l-.84-1.34-1-1.58,2.34-1.35A1.75,1.75,0,0,1,654.18,586.87Z" transform="translate(-37.64 -307.66)" style="fill:#8cc8ed"/><polygon points="622.39 317.34 626.67 313.99 624.83 311.65 620.55 314.99 622.39 317.34" style="fill:#797979"/><path d="M657.5,623.64a1.27,1.27,0,0,0,1.12,1.79,2.32,2.32,0,0,0,2.24-1.53,1.27,1.27,0,0,0-1.12-1.79A2.32,2.32,0,0,0,657.5,623.64Z" transform="translate(-37.64 -307.66)" style="fill:#797979"/><polygon points="614.46 315.56 613.79 312.61 610.35 312.84 611.49 317.27 613.71 317.61 614.46 315.56" style="fill:#eef9fe"/><polygon points="609.47 318.85 614.88 318.43 614.65 315.46 609.23 315.88 609.47 318.85" style="fill:#797979"/><path d="M645.75,624a1.27,1.27,0,0,0-.06,2.11,2.32,2.32,0,0,0,2.71,0,1.27,1.27,0,0,0,.06-2.11A2.32,2.32,0,0,0,645.75,624Z" transform="translate(-37.64 -307.66)" style="fill:#797979"/><path d="M649,577.56c0-1.33,1.75-2.38,3.86-2.34a4.94,4.94,0,0,1,2.85.89,1.69,1.69,0,1,1,1.28,3,4,4,0,0,1-1.26,3.56c-1.81,1.79-.85-.5-3.24-2.54l-.1-.09C650.44,579.85,648.95,578.81,649,577.56Z" transform="translate(-37.64 -307.66)" style="fill:#606060"/><rect x="340.17" y="590.64" width="2.07" height="6.41" transform="translate(530.5 -360.01) rotate(49.23)" style="fill:#fff1ce"/><path d="M337.68,594.69l-1.86,1.55,4.46,5.57s1.66-1.8.64-3.07Z" transform="translate(-37.64 -307.66)" style="fill:#f6906b"/><rect x="337.14" y="595.18" width="2.93" height="1.31" transform="translate(553.89 -348.77) rotate(51.27)" style="fill:#f6906b"/><path d="M345.57,581l2.94,4.87s1.72,2.11-.86,5.18l-6.66,5.4L338.84,594l5.28-5.14s.68-.74-1.24-3l-2.55-2.95,4.88-2.34Z" transform="translate(-37.64 -307.66)" style="fill:#f2d555"/><path d="M347.65,571.53s-5,6.77,6.88,9.26" transform="translate(-37.64 -307.66)" style="fill:none;stroke:#e5d6b5;stroke-linecap:round;stroke-miterlimit:10;stroke-width:4.37019268780463px"/><circle cx="365.1" cy="601.71" r="8.37" transform="translate(-280.78 648.17) rotate(-88.96)" style="fill:none;stroke:#606060;stroke-miterlimit:10;stroke-width:3.27764451585348px"/><circle cx="329.58" cy="601.07" r="8.37" transform="translate(-315 612.03) rotate(-88.96)" style="fill:none;stroke:#606060;stroke-miterlimit:10;stroke-width:3.27764451585348px"/><circle cx="345.06" cy="601.77" r="3.12" transform="translate(-300.52 628.19) rotate(-88.96)" style="fill:#acacac"/><path d="M365.1,602.78a.94.94,0,0,1-.43-.1l-2.84-1.46a1,1,0,0,1-.48-.59l-4.43-15.8a.95.95,0,0,1,.78-1.2,4.1,4.1,0,0,0,2.25-.88.35.35,0,0,0-.13-.19c-.85-.78-4-.92-6-.76a.95.95,0,0,1-.15-1.89c.93-.07,5.64-.35,7.39,1.26a2.16,2.16,0,0,1,.74,1.6c0,1.48-1.64,2.19-2.81,2.52l4,14.42,2.47,1.27a.95.95,0,0,1-.43,1.79Z" transform="translate(-37.64 -307.66)" style="fill:#acacac"/><path d="M344.81,603.59a1,1,0,0,1-.92-.7L339.63,587a.95.95,0,1,1,1.83-.49l4.26,15.9a.95.95,0,0,1-.92,1.19Z" transform="translate(-37.64 -307.66)" style="fill:#acacac"/><path d="M347.56,602.86h0l-18.31-.73a.95.95,0,0,1-.61-1.64L341,589a1,1,0,0,1,.66-.25l17.74.32a1,1,0,0,1,.93,1l0,1.66a1,1,0,0,1-.32.7l-11.75,10.26A1,1,0,0,1,347.56,602.86Zm-16-2.53,15.66.62,11.15-9.73v-.29l-16.41-.3Z" transform="translate(-37.64 -307.66)" style="fill:#acacac"/><rect x="336.67" y="583.96" width="9.01" height="3.19" rx="1.17" ry="1.17" transform="translate(634.02 869.56) rotate(-178.96)" style="fill:#acacac"/><rect x="343.65" y="591.64" width="2.07" height="6.41" transform="translate(280.53 -399.79) rotate(27.88)" style="fill:#fff1ce"/><path d="M341.78,597.13l-1.1,2.16,6.31,3.34s.81-2.31-.63-3.07Z" transform="translate(-37.64 -307.66)" style="fill:#f6906b"/><rect x="341.61" y="597.16" width="2.93" height="1.31" transform="translate(281.73 -398.7) rotate(27.88)" style="fill:#f6906b"/><polygon points="310.74 262.7 308.38 261.72 310.25 259.67 312.02 260.6 310.74 262.7" style="fill:#fff1ce"/><path d="M339,579l2.24-2.13,4,3.52a13,13,0,0,1-.49,1.62l3.73,2.87s2.36,1.34,1.08,5.14l-4.24,7.45-2.91-1.54,3.05-6.71s.36-.93-2.23-2.3l-3.44-1.82h0C336.39,583,339,579,339,579Z" transform="translate(-37.64 -307.66)" style="fill:#f5df7b"/><circle cx="350.01" cy="565.86" r="3.39" transform="translate(-351.48 302.99) rotate(-62.12)" style="fill:#fff1ce"/><path d="M338.52,579.11l4.32-7.62s1.68-3.86,5-1.93h0c2.28,1.32.73,4.69.73,4.69l-4,8-2.77-1.47h0Z" transform="translate(-37.64 -307.66)" style="fill:#5ebfc0"/><path d="M341.61,571.42" transform="translate(-37.64 -307.66)" style="fill:none;stroke:#fff;stroke-miterlimit:10;stroke-width:3.27764451585348px"/><path d="M346.48,571.91s-5,6.77,6.88,9.26" transform="translate(-37.64 -307.66)" style="fill:none;stroke:#fff1ce;stroke-linecap:round;stroke-miterlimit:10;stroke-width:4.37019268780463px"/><path d="M346.36,561.84a1.42,1.42,0,0,1,2.82.36,4,4,0,0,1,2.53.49c1.54.81,2.37,2.26,1.86,3.24s-2,1.08-3.45.42l-.1,0c-2.55.53-2.77,2.56-3.36.55a3.91,3.91,0,0,1-.16-.92h0a3.52,3.52,0,0,1,.82-2.53A1.42,1.42,0,0,1,346.36,561.84Z" transform="translate(-37.64 -307.66)" style="fill:#f5df7b"/><polygon points="712.36 243.34 712.36 257.39 712.36 267.35 716.36 267.35 716.36 256.35 753.36 256.35 753.36 267.35 756.36 267.35 756.36 257.39 756.36 257.39 756.36 243.34 712.36 243.34" style="fill:#919191"/><polygon points="169.36 243.34 169.36 257.39 169.36 267.35 173.36 267.35 173.36 256.35 209.36 256.35 209.36 267.35 214.36 267.35 214.36 257.39 214.36 257.39 214.36 243.34 169.36 243.34" style="fill:#919191"/><rect x="179.32" y="233.87" width="6.43" height="5.02" style="fill:#88765d"/><path d="M213.61,562.58a1.2,1.2,0,0,1-1.19-1.09c-.76-8,4.64-14.9,4.87-15.19a1.2,1.2,0,0,1,1.87,1.5h0c-.05.06-5,6.4-4.36,13.47a1.2,1.2,0,0,1-1.08,1.3Z" transform="translate(-37.64 -307.66)" style="fill:#e6d5b4"/><path d="M226.26,562.58l-.22,0a1.2,1.2,0,0,1-1-1.39c1.05-5.73-3.75-13.39-3.79-13.47a1.2,1.2,0,1,1,2-1.28c.22.35,5.35,8.54,4.13,15.19A1.2,1.2,0,0,1,226.26,562.58Z" transform="translate(-37.64 -307.66)" style="fill:#e6d5b4"/><rect x="178.16" y="262.52" width="2.25" height="3.43" style="fill:#e6d5b4"/><rect x="177.89" y="265.39" width="2.74" height="1.19" style="fill:#5f6161"/><path d="M218.18,574h-2.56a3.1,3.1,0,0,0-.69,1.52c0,.35.78.85,1.92.85s2-.36,2-.76A3.62,3.62,0,0,0,218.18,574Z" transform="translate(-37.64 -307.66)" style="fill:#929090"/><rect x="184.23" y="262.52" width="2.25" height="3.43" style="fill:#e6d5b4"/><rect x="183.95" y="265.39" width="2.74" height="1.19" style="fill:#5f6161"/><path d="M224.24,574h-2.56a3.1,3.1,0,0,0-.69,1.52c0,.35.78.85,1.92.85s2-.36,2-.76A3.62,3.62,0,0,0,224.24,574Z" transform="translate(-37.64 -307.66)" style="fill:#929090"/><rect x="178.28" y="249.31" width="8.31" height="5.97" style="fill:#8cc8ed"/><rect x="176.91" y="253.36" width="4.61" height="10.92" style="fill:#b9ddf3"/><rect x="183.19" y="253.36" width="4.61" height="10.92" style="fill:#b9ddf3"/><circle cx="179.22" cy="253.36" r="2.31" style="fill:#b9ddf3"/><circle cx="185.5" cy="253.36" r="2.31" style="fill:#b9ddf3"/><rect x="178.28" y="241.55" width="8.34" height="9.04" style="fill:#fbf49a"/><circle cx="182.45" cy="241.55" r="4.17" style="fill:#fbf49a"/><circle cx="182.62" cy="234.29" r="3.24" style="fill:#e6d5b4"/><polygon points="184.23 238.34 181.05 238.34 181.63 236.1 183.65 236.1 184.23 238.34" style="fill:#e6d5b4"/><path d="M220.26,538.4a3.26,3.26,0,0,0-3.34,3.2l3.36-2,3.33,2A3.26,3.26,0,0,0,220.26,538.4Z" transform="translate(-37.64 -307.66)" style="fill:#88765d"/><polygon points="180.59 239.4 179.28 239.4 179.28 233.74 179.87 232.92 180.59 232.92 180.59 239.4" style="fill:#88765d"/><polygon points="185.97 239.4 184.66 239.4 184.66 232.92 185.56 232.92 185.97 233.95 185.97 239.4" style="fill:#88765d"/><path d="M232.39,562.74a1,1,0,0,1-1-.81c-.92-5.17.72-11.09.79-11.34a1,1,0,0,1,1.9.53c0,.06-1.58,5.74-.75,10.46a1,1,0,0,1-.8,1.14Z" transform="translate(-37.64 -307.66)" style="fill:#87775e"/><path d="M244.72,562.74l-.17,0a1,1,0,0,1-.8-1.14c.84-4.73-.73-10.4-.75-10.46a1,1,0,0,1,1.9-.53c.07.25,1.7,6.17.79,11.34A1,1,0,0,1,244.72,562.74Z" transform="translate(-37.64 -307.66)" style="fill:#87775e"/><path d="M235.81,543s-1.41-5.2,3.06-5.26c4.76-.06,3.11,5.26,3.11,5.26l-6.08-.74Z" transform="translate(-37.64 -307.66)" style="fill:#474747"/><path d="M239.24,545.34s-.08,0-.12-.05l0,0c-.05,0-.1-.14-.15-.14V545h0v.2c-7,0-7.21,6.8-7.21,6.8H234v9h8v-9h3.61S245.87,545.56,239.24,545.34Z" transform="translate(-37.64 -307.66)" style="fill:#dddddc"/><rect x="196.71" y="249.79" width="8.71" height="5.82" style="fill:#f3724c"/><circle cx="201.25" cy="234.01" r="3.34" style="fill:#87775e"/><polygon points="202.8 237.94 199.71 237.94 200.27 235.76 202.24 235.76 202.8 237.94" style="fill:#87775e"/><ellipse cx="201.38" cy="231.38" rx="2.43" ry="1.21" style="fill:#474747"/><rect x="196.89" y="262.67" width="2.19" height="3.34" style="fill:#fff"/><rect x="196.62" y="265.47" width="2.67" height="1.16" style="fill:#5f6161"/><path d="M236.84,574h-2.5a5.25,5.25,0,0,0-.67,1.75c0,.31.76,1,1.87,1s2-.63,2-1A5.11,5.11,0,0,0,236.84,574Z" transform="translate(-37.64 -307.66)" style="fill:#929090"/><rect x="202.8" y="262.67" width="2.19" height="3.34" style="fill:#fff"/><rect x="202.53" y="265.47" width="2.67" height="1.16" style="fill:#5f6161"/><path d="M242.75,574h-2.5a5.25,5.25,0,0,0-.67,1.75c0,.31.76,1,1.87,1s2-.63,2-1A5.11,5.11,0,0,0,242.75,574Z" transform="translate(-37.64 -307.66)" style="fill:#929090"/><rect x="195.67" y="253.75" width="4.49" height="10.65" style="fill:#f68f6c"/><rect x="201.79" y="253.75" width="4.49" height="10.65" style="fill:#f68f6c"/><circle cx="197.92" cy="253.75" r="2.25" style="fill:#f68f6c"/><circle cx="204.04" cy="253.75" r="2.25" style="fill:#f68f6c"/><path d="M768.85,561.52a1,1,0,0,1-.93-.78c-.88-5,.69-10.68.76-10.92a.95.95,0,0,1,1.83.51c0,.05-1.52,5.53-.72,10.08a1,1,0,0,1-.77,1.1Z" transform="translate(-37.64 -307.66)" style="fill:#feeadc"/><path d="M780.72,561.52h-.17a1,1,0,0,1-.77-1.1c.81-4.55-.7-10-.72-10.08a.95.95,0,0,1,1.83-.51c.07.24,1.64,5.94.76,10.92A1,1,0,0,1,780.72,561.52Z" transform="translate(-37.64 -307.66)" style="fill:#feeadc"/><path d="M772.14,542.46s-1.36-5,2.95-5.06c4.58-.06,3,5.06,3,5.06l-5.85-.71Z" transform="translate(-37.64 -307.66)" style="fill:#f3724c"/><path d="M775.45,544.67h-.31v0A6.64,6.64,0,0,0,768.2,551H770v9h8v-9h3.58S781.83,544.88,775.45,544.67Z" transform="translate(-37.64 -307.66)" style="fill:#f8eaa2"/><rect x="733.05" y="248.77" width="8.44" height="5.61" style="fill:#f3724c"/><circle cx="737.47" cy="233.57" r="3.22" style="fill:#feeadc"/><polygon points="738.96 237.35 735.98 237.35 736.52 235.25 738.42 235.25 738.96 237.35" style="fill:#feeadc"/><ellipse cx="737.59" cy="231.03" rx="2.35" ry="1.17" style="fill:#f3724c"/><rect x="733.27" y="261.17" width="2.11" height="3.22" style="fill:#fff"/><rect x="733.01" y="263.87" width="2.58" height="1.12" style="fill:#f8eaa2"/><path d="M773.14,572h-2.41a6.69,6.69,0,0,0-.64,1.87c0,.3.74,1,1.8,1s1.89-.75,1.89-1.08A6.1,6.1,0,0,0,773.14,572Z" transform="translate(-37.64 -307.66)" style="fill:#b9ddf3"/><rect x="738.96" y="261.17" width="2.11" height="3.22" style="fill:#fff"/><rect x="738.7" y="263.87" width="2.58" height="1.12" style="fill:#f8eaa2"/><path d="M778.83,572h-2.41a6.69,6.69,0,0,0-.64,1.87c0,.3.74,1,1.8,1s1.89-.75,1.89-1.08A6.1,6.1,0,0,0,778.83,572Z" transform="translate(-37.64 -307.66)" style="fill:#b9ddf3"/><rect x="732.09" y="252.58" width="4.33" height="10.25" style="fill:#f68f6c"/><rect x="737.99" y="252.58" width="4.33" height="10.25" style="fill:#f68f6c"/><circle cx="734.26" cy="252.58" r="2.17" style="fill:#f68f6c"/><circle cx="740.15" cy="252.58" r="2.17" style="fill:#f68f6c"/><rect x="432.36" y="206.92" width="62" height="9.58" style="fill:#ccc"/><rect x="432.36" y="213.83" width="62" height="11.96" style="fill:#ddd"/><rect x="432.36" y="222.38" width="62" height="124.13" style="fill:#feeadc"/></svg>