<svg xmlns="http://www.w3.org/2000/svg" width="1600" height="704.04" viewBox="0 0 1600 704.04" xmlns:xlink="http://www.w3.org/1999/xlink">
	<defs>
		<path id="cloud" d="M167.19,248.23A18.23,18.23,0,0,1,194,235.65a24.05,24.05,0,0,1,44.5,1.35,15.32,15.32,0,0,1,4.67-.74,15.05,15.05,0,0,1,14.81,11.83,14.32,14.32,0,0,1,.34,3c0,.54,0,2.57-.07,2.77-.2.61-.81,2.16-1.56,2.16H168.75c-.74,0-1.35-1.55-1.56-2.23C166.79,253,167.06,249.18,167.19,248.23Z" transform="translate(-20 -148.38)" style="fill:#c5e7e7"/>
		<g id="player1"><rect x="410.56" y="446.4" width="3.41" height="4.64" transform="translate(312.27 -303.74) rotate(35.03)" style="fill:#f2d1ba"/><path d="M408.41,449.92l-2.71,2.26,10.44,7.32s1.38-2.64-.82-4.18S408.41,449.92,408.41,449.92Z" transform="translate(-20 -148.38)" style="fill:#ebd814"/><rect x="408.24" y="449.98" width="4.84" height="1.89" transform="matrix(0.82, 0.57, -0.57, 0.82, 313.24, -302.42)" style="fill:#ebd814"/><polygon points="402.85 257.03 399.8 254.41 402.67 251.96 405.37 253.85 402.85 257.03" style="fill:#f2d1ba"/><path d="M419.26,428.61,414,424.89a21.65,21.65,0,0,0,1.79-3.7l-5.85-6.59-4.1,3s-5.39,6.34.39,10.38l8.13,5.7c2.92,2,1.25,4.54,1.25,4.54l-6.49,9.26,5.16,3.62,6.53-9.32C426.21,434,419.26,428.61,419.26,428.61Z" transform="translate(-20 -148.38)" style="fill:#c5e7e7"/><circle cx="426.44" cy="398.39" r="5.59" transform="translate(-164.56 370.51) rotate(-54.97)" style="fill:#f2d1ba"/><path d="M433.44,400c-1.27,1.81-4.33-2.29-6.34-1.93s-3,5.16-4.79,3.89a8,8,0,1,1,11.13-2Z" transform="translate(-20 -148.38)" style="fill:#f1d454"/><path d="M422.23,403.23h0l-.07,0-.07-.06h0c-4.32-2.83-8.52,2.94-8.52,2.94l-9.52,12.46,4.86,3.41.14.1L414,425.5l9.53-13.6S426.48,406.37,422.23,403.23Z" transform="translate(-20 -148.38)" style="fill:#3998d3"/><path d="M428.77,425.9a1.77,1.77,0,0,1-.57-.1c-7.41-2.55-11.69-6-12.73-10.31-1.21-5,2.51-9,2.67-9.14a1.76,1.76,0,0,1,2.55,2.42c0,.05-2.57,2.81-1.8,5.91s4.36,5.7,10.46,7.79a1.76,1.76,0,0,1-.57,3.42Z" transform="translate(-20 -148.38)" style="fill:#f2d1ba"/></g>
		<g id="player2"><rect x="494.02" y="451.6" width="3.41" height="4.64" transform="translate(1142.21 392.67) rotate(144.97)" style="fill:#f2d1ba"/><path d="M499.59,455.12l2.71,2.26-10.44,7.32s-1.38-2.64.82-4.18S499.59,455.12,499.59,455.12Z" transform="translate(-20 -148.38)" style="fill:#e15433"/><rect x="494.91" y="455.18" width="4.84" height="1.89" transform="translate(1146.4 395.76) rotate(144.97)" style="fill:#e15433"/><polygon points="465.15 262.23 468.2 259.61 465.33 257.17 462.63 259.06 465.15 262.23" style="fill:#f2d1ba"/><path d="M488.73,433.81l5.31-3.72a21.65,21.65,0,0,1-1.79-3.7l5.85-6.59,4.1,3s5.39,6.34-.39,10.38l-8.13,5.7c-2.92,2-1.25,4.54-1.25,4.54l6.49,9.26-5.16,3.62L487.24,447C481.79,439.24,488.73,433.81,488.73,433.81Z" transform="translate(-20 -148.38)" style="fill:#5f6060"/><circle cx="481.56" cy="403.59" r="5.59" transform="matrix(0.82, -0.57, 0.57, 0.82, -164.43, 201.16)" style="fill:#f2d1ba"/><path d="M474.56,405.2c1.27,1.81,4.33-2.29,6.34-1.93s3,5.16,4.79,3.89a8,8,0,1,0-11.13-2Z" transform="translate(-20 -148.38)" style="fill:#e15433"/><path d="M485.77,408.43h0l.07,0,.07-.06h0c4.32-2.83,8.52,2.94,8.52,2.94l9.52,12.46-4.86,3.41-.14.1L494,430.71l-9.53-13.6S481.52,411.57,485.77,408.43Z" transform="translate(-20 -148.38)" style="fill:#f58e6b"/><path d="M479.23,431.1a1.76,1.76,0,0,1-.57-3.42c6.11-2.11,9.73-4.81,10.46-7.82s-1.77-5.86-1.8-5.88a1.76,1.76,0,1,1,2.54-2.42c.16.17,3.88,4.14,2.67,9.14-1,4.29-5.33,7.76-12.73,10.31A1.77,1.77,0,0,1,479.23,431.1Z" transform="translate(-20 -148.38)" style="fill:#f2d1ba"/></g>
		<path id="mound" d="M620.49,306h0a90.85,90.85,0,0,1,90.85,90.85V536.41H530.84V395.62A89.65,89.65,0,0,1,620.49,306Z" transform="translate(-20 -148.38)" style="fill:#98d3be"/>
		<polygon id="crenellation" points="990.86 280.96 990.86 287.7 982.28 287.7 982.28 280.96 969.61 280.96 969.61 287.7 969.61 296.04 969.61 313.21 1003.52 313.21 1003.52 296.04 1003.52 287.7 1003.52 280.96 990.86 280.96" />
		<path id="shrubs" d="M1441.34,596.69c-7.13,0-13.15,4-15.41,9.56l-.47-.07c-2.26-5.55-8.28-9.5-15.39-9.5s-13.15,4-15.41,9.56l-.47-.07c-2.26-5.55-8.28-9.5-15.39-9.5s-13.15,4-15.41,9.56l-.47-.07c-2.26-5.55-8.28-9.5-15.39-9.5s-13.15,4-15.41,9.56l-.47-.07c-2.26-5.55-8.28-9.5-15.39-9.5s-13.15,4-15.41,9.56l-.47-.07c-2.26-5.55-8.28-9.5-15.39-9.5-9.06,0-16.36,6.47-16.36,14.35a13.7,13.7,0,0,0,2.84,8.16h183.29a13.13,13.13,0,0,0,2.95-8.16C1457.7,603.07,1450.39,596.69,1441.34,596.69Z" transform="translate(-20 -148.38)" style="fill:#4ca260"/>
		<g id="window"><polygon points="1086 336.62 1086 328.62 1000 328.62 1000 336.62 1004 336.62 1004 368.62 1000 368.62 1000 376.62 1086 376.62 1086 368.62 1083 368.62 1083 336.62 1086 336.62" style="fill:#fbe7d9"/><rect x="1035.97" y="340.74" width="14.06" height="23.38" style="fill:#b3decf"/><rect x="1013.91" y="340.74" width="14.06" height="23.38" style="fill:#b3decf"/><rect x="1058.06" y="340.74" width="14.06" height="23.38" style="fill:#b3decf"/></g>
	</defs>

<polygon points="800 365.57 1198.18 27.62 1600 365.62 800 365.57" style="fill:#4ca260"/>

<use xlink:href="#mound" /> <use xlink:href="#mound" x="175" /> <use xlink:href="#mound" x="350" />

<rect x="90" y="210.95" width="8" height="83.37" style="fill:#f1d454"/>

<rect x="1095.57" y="270.62" width="192.9" height="76.89" style="fill:#f8ad98"/>
<use xlink:href="#crenellation" x="125" y="-18" style="fill:#f8ad98" />
<use xlink:href="#crenellation" x="286" y="-18" style="fill:#f8ad98" />
<use xlink:href="#crenellation" x="169.25" y="-98" style="fill:#f2714c" />
<use xlink:href="#crenellation" x="241.75" y="-98" style="fill:#f2714c" />



<rect x="842" y="321.62" width="6" height="55" style="fill:#b2a083"/><circle cx="845.3" cy="309.51" r="27.53" style="fill:#7cc68c"/><rect x="784" y="321.62" width="7" height="55" style="fill:#b2a083"/><circle cx="787.8" cy="309.51" r="27.53" style="fill:#7cc68c"/><rect x="900" y="321.62" width="7" height="55" style="fill:#b2a083"/><circle cx="903.73" cy="309.51" r="27.53" style="fill:#7cc68c"/><polygon points="0 365.62 800 365.62 1202.09 703.62 400.04 704.04 0 365.62" style="fill:#4ca260"/><rect x="814" y="325.62" width="5" height="40" style="fill:#b2a083"/><circle cx="817.6" cy="315.73" r="20.5" style="fill:#4ca260"/><rect x="872" y="325.62" width="6" height="40" style="fill:#b2a083"/><circle cx="875.15" cy="315.73" r="20.5" style="fill:#4ca260"/><rect x="958" y="321.62" width="8" height="55" style="fill:#b2a083"/><circle cx="961.26" cy="309.51" r="27.53" style="fill:#7cc68c"/><rect x="928" y="325.62" width="5" height="40" style="fill:#b2a083"/><circle cx="931.17" cy="315.73" r="20.5" style="fill:#4ca260"/><rect x="1410" y="321.62" width="10" height="55" style="fill:#b2a083"/><circle cx="1414.84" cy="309.51" r="27.53" style="fill:#7cc68c"/><rect x="1469" y="321.62" width="8" height="55" style="fill:#b2a083"/><circle cx="1473.27" cy="309.51" r="27.53" style="fill:#7cc68c"/><rect x="1442" y="325.62" width="5" height="40" style="fill:#b2a083"/><circle cx="1444.69" cy="315.73" r="20.5" style="fill:#4ca260"/><rect x="1526" y="320.62" width="7" height="53" style="fill:#b2a083"/><circle cx="1530.12" cy="308.83" r="26.85" style="fill:#7cc68c"/><rect x="1497" y="325.62" width="6" height="40" style="fill:#b2a083"/><circle cx="1500.71" cy="315.73" r="20.5" style="fill:#4ca260"/><polygon points="0 365.62 405.15 27.62 800 365.62 0 365.62" style="fill:#7cc68c"/><polygon points="1600 365.62 1202.09 703.62 800 365.62 1600 365.62" style="fill:#7cc68c"/><polygon points="1262.04 652.74 1202.09 703.62 1122 643.75 1122 419.63 1262.04 419.63 1262.04 652.74" style="fill:#f2d1ba"/>

<use xlink:href="#cloud" /> <use xlink:href="#cloud" x="770" y="-70" /> <use xlink:href="#cloud" x="365" y="-70" transform="scale(1.2)" /> <use xlink:href="#cloud" x="920" transform="scale(1.2)" /> <use xlink:href="#cloud" x="1000" y="-20" transform="scale(0.7)" /> <use xlink:href="#cloud" x="1940" y="180" transform="scale(0.7)" />

<rect x="969.61" y="295.62" width="444.81" height="173.12" style="fill:#f58e6b"/><rect x="1138.92" y="212.64" width="106.21" height="242.62" style="fill:#f2714c"/><rect x="969.61" y="415.09" width="444.81" height="54.25" style="fill:#f2714c"/><rect x="1138.92" y="328.83" width="106.21" height="19.21" style="fill:#fbe7d9"/><rect x="1224.43" y="196.69" width="8.53" height="8.54" style="fill:#fbe7d9"/><rect x="1151.81" y="196.69" width="8.53" height="8.54" style="fill:#fbe7d9"/><polygon points="1224 228.62 1224 224.62 1160 224.62 1160 228.62 1170 228.62 1170 309.62 1160 309.62 1160 317.62 1224 317.62 1224 309.62 1215 309.62 1215 228.62 1224 228.62" style="fill:#fbe7d9"/><rect x="1188.38" y="233.61" width="8.62" height="30.85" style="fill:#b3decf"/><rect x="1174.86" y="233.61" width="8.62" height="30.85" style="fill:#b3decf"/><rect x="1201.89" y="233.61" width="8.62" height="30.85" style="fill:#b3decf"/><rect x="1188.38" y="277.94" width="8.62" height="30.85" style="fill:#b3decf"/><rect x="1174.86" y="277.94" width="8.62" height="30.85" style="fill:#b3decf"/><rect x="1201.89" y="277.94" width="8.62" height="30.85" style="fill:#b3decf"/>

<use xlink:href="#window" />
<use xlink:href="#window" x="300" />

<rect x="1122" y="344.51" width="140.04" height="124.83" style="fill:#fbe7d9"/><rect x="1116.22" y="337.86" width="151.59" height="13.31" style="fill:#fbe7d9"/><rect x="969.61" y="415.09" width="444.81" height="6.65" style="fill:#fbe7d9"/><path d="M1212,502.59c-29.86,0-54,19.37-54,43.26V618h108V545.85C1266,522,1241.86,502.59,1212,502.59Z" transform="translate(-20 -148.38)" style="fill:#b3decf"/><rect x="1158.59" y="355.49" width="6.86" height="113.85" style="fill:#fbe7d9"/><rect x="1135.29" y="395.32" width="113.85" height="6.86" style="fill:#fbe7d9"/><rect x="1218.59" y="355.49" width="6.86" height="113.85" style="fill:#fbe7d9"/><polygon points="187 365.62 179 365.62 179 216.29 187 209.62 187 365.62" style="fill:#fff"/><polygon points="98 365.62 90 365.62 90 290.54 98 283.86 98 365.62" style="fill:#fff"/><polygon points="692 365.62 684 365.62 684 266.21 692 273.06 692 365.62" style="fill:#fff"/><polygon points="360 365.62 352 365.62 352 70.24 360 63.95 360 365.62" style="fill:#fff"/><polygon points="440 365.62 432 365.62 432 50.61 440 57.45 440 365.62" style="fill:#fff"/><polygon points="527 365.62 519 365.62 519 125.04 527 131.92 527 365.62" style="fill:#fff"/><polygon points="609 365.62 601 365.62 601 195.27 609 202.15 609 365.62" style="fill:#fff"/>

<use xlink:href="#player1" y="-100" />

<rect x="494.02" y="348.21" width="3.41" height="4.64" transform="translate(1082.87 204.62) rotate(144.97)" style="fill:#f2d1ba"/><path d="M499.59,351.73l2.71,2.26-10.44,7.32s-1.38-2.64.82-4.18S499.59,351.73,499.59,351.73Z" transform="translate(-20 -148.38)" style="fill:#e15433"/><rect x="494.91" y="351.8" width="4.84" height="1.89" transform="translate(1087.05 207.71) rotate(144.97)" style="fill:#e15433"/><polygon points="465.15 158.84 468.2 156.22 465.33 153.78 462.63 155.67 465.15 158.84" style="fill:#b2a083"/><path d="M488.73,330.42,494,326.7a21.65,21.65,0,0,1-1.79-3.7l5.85-6.59,4.1,3s5.39,6.34-.39,10.38l-8.13,5.7c-2.92,2-1.25,4.54-1.25,4.54l6.49,9.26-5.16,3.62-6.53-9.32C481.79,335.85,488.73,330.42,488.73,330.42Z" transform="translate(-20 -148.38)" style="fill:#5f6060"/><circle cx="481.56" cy="300.21" r="5.59" transform="translate(-105.09 182.43) rotate(-35.03)" style="fill:#b2a083"/><path d="M474.56,301.81c1.27,1.81,4.33-2.29,6.34-1.93s3,5.16,4.79,3.89a8,8,0,1,0-11.13-2Z" transform="translate(-20 -148.38)" style="fill:#e15433"/><path d="M485.77,305h0l.07,0,.07-.06h0c4.32-2.83,8.52,2.94,8.52,2.94l9.52,12.46-4.86,3.41-.14.1L494,327.32l-9.53-13.6S481.52,308.18,485.77,305Z" transform="translate(-20 -148.38)" style="fill:#f58e6b"/><path d="M479.23,327.72a1.76,1.76,0,0,1-.57-3.42c6.11-2.11,9.73-4.81,10.46-7.82s-1.77-5.86-1.8-5.88a1.76,1.76,0,0,1,2.54-2.43c.16.17,3.88,4.14,2.67,9.14-1,4.29-5.33,7.76-12.73,10.31A1.77,1.77,0,0,1,479.23,327.72Z" transform="translate(-20 -148.38)" style="fill:#b2a083"/><rect x="582.67" y="436.79" width="3.68" height="4.99" transform="translate(1264.08 78.23) rotate(126.16)" style="fill:#fff0cd"/><rect x="574.9" y="443.14" width="3.68" height="4.99" transform="translate(1133.48 742.89) rotate(-180)" style="fill:#fff0cd"/><path d="M578.24,410.18l-3.34,13.1s-.42,3.42,1.89,5.14,9.27,7.65,9.27,7.65l-3.7,5.55-9.05-7.42a11.74,11.74,0,0,1-5-13.14c2.15-8.24,2.87-11.57,2.87-11.57Z" transform="translate(-20 -148.38)" style="fill:#5f6060"/><polygon points="553.84 262.08 561.63 262.08 559.68 297.98 553.84 297.98 553.84 262.08" style="fill:#5f6060"/><circle cx="556.71" cy="232.17" r="6.02" style="fill:#fff0cd"/><polygon points="553.92 240.28 559.5 240.28 558.49 236.35 554.94 236.35 553.92 240.28" style="fill:#fff0cd"/><path d="M570,412.27V392.73a6.46,6.46,0,0,1,6.69-5.2v24.75Z" transform="translate(-20 -148.38)" style="fill:#e15433"/><path d="M579.4,449.07l1,3.66H566.66s.42-3.18,3.31-3.18S579.4,449.07,579.4,449.07Z" transform="translate(-20 -148.38)" style="fill:#e15433"/><path d="M588.45,439.19l3.67,1-6.8,11.93s-2.55-1.94-1.12-4.45S588.45,439.19,588.45,439.19Z" transform="translate(-20 -148.38)" style="fill:#e15433"/><rect x="584.33" y="440.04" width="5.21" height="2.03" transform="translate(1242.37 4.91) rotate(120)" style="fill:#e15433"/><rect x="574.19" y="447.55" width="5.21" height="2.03" transform="translate(1133.59 748.76) rotate(-180)" style="fill:#e15433"/><path d="M582.79,409.91a2.13,2.13,0,0,1-.64-.1,2.16,2.16,0,0,1-1.43-2.7c1.42-4.63,1.39-8.25-.11-10.47a6,6,0,0,0-4-2.49,2.16,2.16,0,0,1,.39-4.31,10.43,10.43,0,0,1,7.22,4.38c2.28,3.39,2.5,8.15.65,14.16A2.16,2.16,0,0,1,582.79,409.91Z" transform="translate(-20 -148.38)" style="fill:#fff0cd"/><path d="M583.18,412.27V392.73a6.39,6.39,0,0,0-6.57-5.2v24.75Z" transform="translate(-20 -148.38)" style="fill:#f58e6b"/><path d="M564.66,408a2.16,2.16,0,0,1-.3-4.3c4.5-.63,7.6-2.18,9.22-4.61a8.94,8.94,0,0,0,1.1-6.57,2.16,2.16,0,0,1,4.17-1.13,13.23,13.23,0,0,1-1.64,10C574.9,405,570.77,407.18,565,408Z" transform="translate(-20 -148.38)" style="fill:#fff0cd"/><path d="M569.88,378c0,2.21,4.85.65,6.28,2.11s-.57,5.93,1.64,5.95a8,8,0,1,0-7.92-8.06Z" transform="translate(-20 -148.38)" style="fill:#e15433"/><rect x="344.44" y="436.7" width="3.68" height="4.99" transform="translate(476.52 -247.91) rotate(53.84)" style="fill:#b2a083"/><rect x="332.21" y="294.67" width="3.68" height="4.99" style="fill:#b2a083"/><path d="M352.55,410.09l3.34,13.1s.42,3.42-1.89,5.14-9.27,7.65-9.27,7.65l3.7,5.55,9.05-7.42a11.74,11.74,0,0,0,5-13.14c-2.15-8.24-2.87-11.57-2.87-11.57Z" transform="translate(-20 -148.38)" style="fill:#c5e7e7"/><polygon points="336.94 262 329.15 262 331.1 297.89 336.94 297.89 336.94 262" style="fill:#c5e7e7"/><circle cx="334.07" cy="232.08" r="6.02" style="fill:#b2a083"/><polygon points="336.86 240.19 331.28 240.19 332.3 236.26 335.85 236.26 336.86 240.19" style="fill:#b2a083"/><path d="M360.82,412.19V392.64a6.46,6.46,0,0,0-6.69-5.2v24.75Z" transform="translate(-20 -148.38)" style="fill:#3998d3"/><path d="M351.38,449l-1,3.66h13.73s-.42-3.18-3.31-3.18S351.38,449,351.38,449Z" transform="translate(-20 -148.38)" style="fill:#ebd814"/><path d="M342.33,439.11l-3.67,1,6.8,11.93s2.55-1.94,1.12-4.45S342.33,439.11,342.33,439.11Z" transform="translate(-20 -148.38)" style="fill:#ebd814"/><rect x="341.24" y="439.96" width="5.21" height="2.03" transform="translate(533.82 -225.68) rotate(60)" style="fill:#ebd814"/><rect x="331.38" y="299.09" width="5.21" height="2.03" style="fill:#ebd814"/><path d="M348,409.82a2.13,2.13,0,0,0,.64-.1,2.16,2.16,0,0,0,1.43-2.7c-1.42-4.63-1.39-8.25.11-10.47a6,6,0,0,1,4-2.49,2.16,2.16,0,1,0-.39-4.31,10.43,10.43,0,0,0-7.22,4.38c-2.28,3.39-2.5,8.15-.65,14.16A2.16,2.16,0,0,0,348,409.82Z" transform="translate(-20 -148.38)" style="fill:#b2a083"/><path d="M347.61,412.19V392.64a6.39,6.39,0,0,1,6.57-5.2v24.75Z" transform="translate(-20 -148.38)" style="fill:#3998d3"/><path d="M366.13,407.93a2.16,2.16,0,0,0,.3-4.3c-4.5-.63-7.6-2.18-9.22-4.61a8.94,8.94,0,0,1-1.1-6.57,2.16,2.16,0,0,0-4.17-1.13,13.23,13.23,0,0,0,1.64,10c2.32,3.54,6.45,5.74,12.26,6.56Z" transform="translate(-20 -148.38)" style="fill:#b2a083"/><path d="M360.91,377.92c0,2.21-4.85.65-6.28,2.11S355.19,386,353,386a8,8,0,1,1,7.92-8.06Z" transform="translate(-20 -148.38)" style="fill:#f1d454"/><rect x="410.56" y="374.03" width="3.41" height="4.64" transform="translate(270.72 -316.85) rotate(35.03)" style="fill:#b2a083"/><path d="M408.41,377.55l-2.71,2.26,10.44,7.32s1.38-2.64-.82-4.18S408.41,377.55,408.41,377.55Z" transform="translate(-20 -148.38)" style="fill:#ebd814"/><rect x="408.24" y="377.61" width="4.84" height="1.89" transform="matrix(0.82, 0.57, -0.57, 0.82, 271.7, -315.53)" style="fill:#ebd814"/><polygon points="402.85 184.65 399.8 182.04 402.67 179.59 405.37 181.48 402.85 184.65" style="fill:#f2d1ba"/><path d="M419.26,356.24,414,352.52a21.65,21.65,0,0,0,1.79-3.7l-5.85-6.59-4.1,3s-5.39,6.34.39,10.38l8.13,5.7c2.92,2,1.25,4.54,1.25,4.54l-6.49,9.26,5.16,3.62,6.53-9.32C426.21,361.66,419.26,356.24,419.26,356.24Z" transform="translate(-20 -148.38)" style="fill:#c5e7e7"/><circle cx="426.44" cy="326.02" r="5.59" transform="translate(-105.3 339.68) rotate(-54.97)" style="fill:#b2a083"/><path d="M433.44,327.62c-1.27,1.81-4.33-2.29-6.34-1.93s-3,5.16-4.79,3.89a8,8,0,1,1,11.13-2Z" transform="translate(-20 -148.38)" style="fill:#f1d454"/><path d="M422.23,330.85h0l-.07,0-.07-.06h0c-4.32-2.83-8.52,2.94-8.52,2.94l-9.52,12.46,4.86,3.41.14.1,4.95,3.47,9.53-13.6S426.48,334,422.23,330.85Z" transform="translate(-20 -148.38)" style="fill:#3998d3"/><path d="M428.77,353.53a1.77,1.77,0,0,1-.57-.1c-7.41-2.55-11.69-6-12.73-10.31-1.21-5,2.51-9,2.67-9.14a1.76,1.76,0,0,1,2.55,2.42c0,.05-2.57,2.81-1.8,5.91s4.36,5.7,10.46,7.79a1.76,1.76,0,0,1-.57,3.42Z" transform="translate(-20 -148.38)" style="fill:#b2a083"/>

<use xlink:href="#player2" y="-70" />

<use xlink:href="#player1" />
<use xlink:href="#player2" />

<polygon points="435.97 519.8 187.76 519.8 321.02 631.88 436.27 631.66 435.97 519.8" style="fill:#f2714c"/><rect x="436.27" y="466.69" width="126.93" height="166.96" style="fill:#f58e6b"/><rect x="563.2" y="518.37" width="135.83" height="116.27" style="fill:#f2714c"/><rect x="682.92" y="466.04" width="159.12" height="169.6" style="fill:#f58e6b"/><rect x="694.98" y="489.92" width="133.94" height="34.02" style="fill:#b3decf"/><rect x="466.79" y="527.78" width="63.38" height="34.02" style="fill:#b3decf"/><rect x="466.79" y="489.47" width="63.38" height="34.02" style="fill:#b3decf"/><polygon points="1001.59 535.08 842.1 535.08 842.1 636.51 1124.59 638.5 1001.59 535.08" style="fill:#f2714c"/><rect x="562.4" y="601.78" width="120.11" height="31.28" style="fill:#fbe7d9"/><rect x="562.4" y="570.5" width="4.59" height="62.55" style="fill:#fbe7d9"/><rect x="678.17" y="570.62" width="4.59" height="62.55" style="fill:#fbe7d9"/><rect x="562.4" y="563.95" width="120.36" height="13.1" style="fill:#fbe7d9"/><rect x="568.65" y="605.75" width="24.14" height="17.21" style="fill:#3998d3"/><rect x="597.02" y="605.75" width="24.14" height="17.21" style="fill:#7cc68c"/><rect x="625.4" y="605.75" width="24.14" height="17.21" style="fill:#f1d454"/><rect x="653.78" y="605.75" width="24.14" height="17.21" style="fill:#a3dad9"/><path d="M517.36,614.38s89.89,19.55,132.55,19.55c57.27,0,128-19.55,128-19.55" transform="translate(-20 -148.38)" style="fill:none;stroke:#aaabab;stroke-miterlimit:10;stroke-width:0.680585142982513px"/><path d="M546.13,623.09a3.9,3.9,0,0,1-4.17,3.54,3.84,3.84,0,0,1-3.94-3.75,3.9,3.9,0,0,1,4.17-3.54A3.84,3.84,0,0,1,546.13,623.09Z" transform="translate(-20 -148.38)" style="fill:#f3e3ef"/><path d="M573.18,628.28a3.9,3.9,0,0,1-4.17,3.54,3.84,3.84,0,0,1-3.94-3.75,3.9,3.9,0,0,1,4.17-3.54A3.84,3.84,0,0,1,573.18,628.28Z" transform="translate(-20 -148.38)" style="fill:#fff9cc"/><path d="M593.25,630.46a3.9,3.9,0,0,1-4.17,3.54,3.84,3.84,0,0,1-3.94-3.75,3.9,3.9,0,0,1,4.17-3.54A3.84,3.84,0,0,1,593.25,630.46Z" transform="translate(-20 -148.38)" style="fill:#f3e3ef"/><path d="M616.84,634a3.9,3.9,0,0,1-4.17,3.54,3.84,3.84,0,0,1-3.94-3.75,3.9,3.9,0,0,1,4.17-3.54A3.84,3.84,0,0,1,616.84,634Z" transform="translate(-20 -148.38)" style="fill:#fff9cc"/><path d="M636,636.34a3.9,3.9,0,0,1-4.17,3.54,3.84,3.84,0,0,1-3.94-3.75,3.9,3.9,0,0,1,4.17-3.54A3.84,3.84,0,0,1,636,636.34Z" transform="translate(-20 -148.38)" style="fill:#f3e3ef"/><path d="M657.52,637.74a3.9,3.9,0,0,1-4.17,3.54,3.84,3.84,0,0,1-3.94-3.75,3.9,3.9,0,0,1,4.17-3.54A3.84,3.84,0,0,1,657.52,637.74Z" transform="translate(-20 -148.38)" style="fill:#fff9cc"/><path d="M684.63,636.11a3.9,3.9,0,0,1-4.17,3.54,3.84,3.84,0,0,1-3.94-3.75,3.9,3.9,0,0,1,4.17-3.54A3.84,3.84,0,0,1,684.63,636.11Z" transform="translate(-20 -148.38)" style="fill:#f3e3ef"/><path d="M707.17,632.69a3.9,3.9,0,0,1-4.17,3.54,3.84,3.84,0,0,1-3.94-3.75,3.9,3.9,0,0,1,4.17-3.54A3.84,3.84,0,0,1,707.17,632.69Z" transform="translate(-20 -148.38)" style="fill:#fff9cc"/><path d="M730.87,629a3.9,3.9,0,0,1-4.17,3.54,3.84,3.84,0,0,1-3.94-3.75,3.9,3.9,0,0,1,4.17-3.54A3.84,3.84,0,0,1,730.87,629Z" transform="translate(-20 -148.38)" style="fill:#f3e3ef"/><path d="M755.92,623.56a3.9,3.9,0,0,1-4.17,3.54,3.84,3.84,0,0,1-3.94-3.75,3.9,3.9,0,0,1,4.17-3.54A3.84,3.84,0,0,1,755.92,623.56Z" transform="translate(-20 -148.38)" style="fill:#fff9cc"/><path d="M1020.74,683.46s-71.4,17.21-126.78,7.62c-69.86-12.1-116-76.7-116-76.7" transform="translate(-20 -148.38)" style="fill:none;stroke:#aaabab;stroke-miterlimit:10;stroke-width:0.83507996590505px"/><path d="M989.14,686.8a4.57,4.57,0,0,0,3.8,5.48,5.13,5.13,0,0,0,6.1-3.42,4.57,4.57,0,0,0-3.8-5.48A5.13,5.13,0,0,0,989.14,686.8Z" transform="translate(-20 -148.38)" style="fill:#f3e3ef"/><path d="M967.21,689.75a4.57,4.57,0,0,0,3.8,5.48,5.13,5.13,0,0,0,6.1-3.42,4.57,4.57,0,0,0-3.8-5.48A5.13,5.13,0,0,0,967.21,689.75Z" transform="translate(-20 -148.38)" style="fill:#fff9cc"/><path d="M942.63,692.27a4.57,4.57,0,0,0,3.8,5.48,5.13,5.13,0,0,0,6.1-3.42,4.57,4.57,0,0,0-3.8-5.48A5.13,5.13,0,0,0,942.63,692.27Z" transform="translate(-20 -148.38)" style="fill:#f3e3ef"/><path d="M915.38,692.53a4.57,4.57,0,0,0,3.8,5.48,5.13,5.13,0,0,0,6.1-3.42,4.57,4.57,0,0,0-3.8-5.48A5.13,5.13,0,0,0,915.38,692.53Z" transform="translate(-20 -148.38)" style="fill:#fff9cc"/><path d="M892.27,691.77a4.57,4.57,0,0,0,3.8,5.48,5.13,5.13,0,0,0,6.1-3.42,4.57,4.57,0,0,0-3.8-5.48A5.13,5.13,0,0,0,892.27,691.77Z" transform="translate(-20 -148.38)" style="fill:#f3e3ef"/><path d="M865.27,686.14a4.57,4.57,0,0,0,3.8,5.48,5.13,5.13,0,0,0,6.1-3.42,4.57,4.57,0,0,0-3.8-5.48A5.13,5.13,0,0,0,865.27,686.14Z" transform="translate(-20 -148.38)" style="fill:#fff9cc"/><path d="M842.06,676.44a4.57,4.57,0,0,0,3.8,5.48,5.13,5.13,0,0,0,6.1-3.42,4.57,4.57,0,0,0-3.8-5.48A5.13,5.13,0,0,0,842.06,676.44Z" transform="translate(-20 -148.38)" style="fill:#f3e3ef"/><path d="M824.07,663.58a4.57,4.57,0,0,0,3.8,5.48,5.13,5.13,0,0,0,6.1-3.42,4.57,4.57,0,0,0-3.8-5.48A5.13,5.13,0,0,0,824.07,663.58Z" transform="translate(-20 -148.38)" style="fill:#fff9cc"/><path d="M805.25,647.51A4.57,4.57,0,0,0,809,653a5.13,5.13,0,0,0,6.1-3.42,4.57,4.57,0,0,0-3.8-5.48A5.13,5.13,0,0,0,805.25,647.51Z" transform="translate(-20 -148.38)" style="fill:#f3e3ef"/><path d="M788,632a4.57,4.57,0,0,0,3.8,5.48,5.13,5.13,0,0,0,6.1-3.42,4.57,4.57,0,0,0-3.8-5.48A5.13,5.13,0,0,0,788,632Z" transform="translate(-20 -148.38)" style="fill:#fff9cc"/><path d="M311.4,665.16s37.58,9.57,89.9,11C471,678,517.36,614.38,517.36,614.38" transform="translate(-20 -148.38)" style="fill:none;stroke:#aaabab;stroke-miterlimit:10;stroke-width:0.83507996590505px"/><path d="M316.69,665.29a4.78,4.78,0,0,1-5.12,4.35,4.71,4.71,0,0,1-4.84-4.6,4.78,4.78,0,0,1,5.12-4.35A4.71,4.71,0,0,1,316.69,665.29Z" transform="translate(-20 -148.38)" style="fill:#f3e3ef"/><path d="M334.39,668.77a4.78,4.78,0,0,1-5.12,4.35,4.71,4.71,0,0,1-4.84-4.6,4.78,4.78,0,0,1,5.12-4.35A4.71,4.71,0,0,1,334.39,668.77Z" transform="translate(-20 -148.38)" style="fill:#fff9cc"/><path d="M353.19,672.24a4.78,4.78,0,0,1-5.12,4.35,4.71,4.71,0,0,1-4.84-4.6,4.78,4.78,0,0,1,5.12-4.35A4.71,4.71,0,0,1,353.19,672.24Z" transform="translate(-20 -148.38)" style="fill:#f3e3ef"/><path d="M374.2,677.71a4.78,4.78,0,0,1-5.12,4.35,4.71,4.71,0,0,1-4.84-4.6,4.78,4.78,0,0,1,5.12-4.35A4.71,4.71,0,0,1,374.2,677.71Z" transform="translate(-20 -148.38)" style="fill:#fff9cc"/><path d="M398.26,679.92a4.78,4.78,0,0,1-5.12,4.35,4.71,4.71,0,0,1-4.84-4.6,4.78,4.78,0,0,1,5.12-4.35A4.71,4.71,0,0,1,398.26,679.92Z" transform="translate(-20 -148.38)" style="fill:#f3e3ef"/><path d="M420.45,680.48a4.78,4.78,0,0,1-5.12,4.35,4.71,4.71,0,0,1-4.84-4.6,4.78,4.78,0,0,1,5.12-4.35A4.71,4.71,0,0,1,420.45,680.48Z" transform="translate(-20 -148.38)" style="fill:#fff9cc"/><path d="M443.08,675.67A4.78,4.78,0,0,1,438,680a4.71,4.71,0,0,1-4.84-4.6,4.78,4.78,0,0,1,5.12-4.35A4.71,4.71,0,0,1,443.08,675.67Z" transform="translate(-20 -148.38)" style="fill:#f3e3ef"/><path d="M464.82,668.39a4.78,4.78,0,0,1-5.12,4.35,4.71,4.71,0,0,1-4.84-4.6,4.78,4.78,0,0,1,5.12-4.35A4.71,4.71,0,0,1,464.82,668.39Z" transform="translate(-20 -148.38)" style="fill:#fff9cc"/><path d="M485.84,655.06a4.78,4.78,0,0,1-5.12,4.35,4.71,4.71,0,0,1-4.84-4.6,4.78,4.78,0,0,1,5.12-4.35A4.71,4.71,0,0,1,485.84,655.06Z" transform="translate(-20 -148.38)" style="fill:#f3e3ef"/><path d="M503.52,640.61A4.78,4.78,0,0,1,498.4,645a4.71,4.71,0,0,1-4.84-4.6,4.78,4.78,0,0,1,5.12-4.35A4.71,4.71,0,0,1,503.52,640.61Z" transform="translate(-20 -148.38)" style="fill:#fff9cc"/><polygon points="99 365.62 438 636.69 400.22 703.62 0 365.62 99 365.62" style="fill:#f2d1ba"/>

<use xlink:href="#shrubs" />
<use xlink:href="#shrubs" x="-303" />

<rect x="856.29" y="561.55" width="22.55" height="38.66" style="fill:#b3decf"/><rect x="755.21" y="542.67" width="74.35" height="58.62" style="fill:#b3decf"/><rect x="701.49" y="564.55" width="36.36" height="70.43" style="fill:#b3decf"/><rect x="468.96" y="579.86" width="28.15" height="53.32" style="fill:#b3decf"/><rect x="502.06" y="579.86" width="28.15" height="53.32" style="fill:#b3decf"/><rect x="994.25" y="561.55" width="22.55" height="38.66" style="fill:#b3decf"/><rect x="394.23" y="548.36" width="27.05" height="38.66" style="fill:#b3decf"/><rect x="591.4" y="530.38" width="24.48" height="19.66" style="fill:#b3decf"/><rect x="629.93" y="530.38" width="24.48" height="19.66" style="fill:#b3decf"/><rect x="891.06" y="577.02" width="87.02" height="11.03" style="fill:#facdc7"/><rect x="921.05" y="598.96" width="27.05" height="36.44" style="fill:#b3decf"/><rect x="902.46" y="753.7" width="50" height="12.27" transform="translate(1667.3 -316.01) rotate(90)" style="fill:#facdc7"/><rect x="956.67" y="753.7" width="50" height="12.27" transform="translate(1721.5 -370.21) rotate(90)" style="fill:#facdc7"/><path d="M739.83,697.2c-12.18,0-21.93,6.83-21.93,15.44v9.15h43.85v-9.31C761.75,704,752,697.2,739.83,697.2Z" transform="translate(-20 -148.38)" style="fill:#5fafe1"/><path d="M806.13,705.5c-15.24,3.12-24.87,16.43-21.31,30.45L840,724.64C836.46,710.62,821.37,702.38,806.13,705.5Z" transform="translate(-20 -148.38)" style="fill:#dfc33e"/><path d="M798.85,716.3a4.22,4.22,0,0,1-3.53,5,4.72,4.72,0,0,1-5.61-3.17,4.22,4.22,0,0,1,3.53-5A4.72,4.72,0,0,1,798.85,716.3Z" transform="translate(-20 -148.38)" style="fill:#86765d"/><path d="M795.83,722.58a4.22,4.22,0,0,1-3.53,5,4.72,4.72,0,0,1-5.61-3.17,4.22,4.22,0,0,1,3.53-5A4.72,4.72,0,0,1,795.83,722.58Z" transform="translate(-20 -148.38)" style="fill:#4ca260"/><path d="M793.61,728.74a4.22,4.22,0,0,1-3.53,5,4.72,4.72,0,0,1-5.61-3.17,4.22,4.22,0,0,1,3.53-5A4.72,4.72,0,0,1,793.61,728.74Z" transform="translate(-20 -148.38)" style="fill:#86765d"/><path d="M804,710.93a4.22,4.22,0,0,1-3.53,5,4.72,4.72,0,0,1-5.61-3.17,4.22,4.22,0,0,1,3.53-5A4.72,4.72,0,0,1,804,710.93Z" transform="translate(-20 -148.38)" style="fill:#f58e6b"/><path d="M811.19,707.82a4.22,4.22,0,0,1-3.53,5,4.72,4.72,0,0,1-5.61-3.17,4.22,4.22,0,0,1,3.53-5A4.72,4.72,0,0,1,811.19,707.82Z" transform="translate(-20 -148.38)" style="fill:#4ca260"/><path d="M818.9,706.24a4.22,4.22,0,0,1-3.53,5,4.72,4.72,0,0,1-5.61-3.17,4.22,4.22,0,0,1,3.53-5A4.72,4.72,0,0,1,818.9,706.24Z" transform="translate(-20 -148.38)" style="fill:#86765d"/><path d="M827.42,705.56a4.22,4.22,0,0,1-3.53,5,4.72,4.72,0,0,1-5.61-3.17,4.22,4.22,0,0,1,3.53-5A4.72,4.72,0,0,1,827.42,705.56Z" transform="translate(-20 -148.38)" style="fill:#f58e6b"/><path d="M834.62,709a4.22,4.22,0,0,1-3.53,5,4.72,4.72,0,0,1-5.61-3.17,4.22,4.22,0,0,1,3.53-5A4.72,4.72,0,0,1,834.62,709Z" transform="translate(-20 -148.38)" style="fill:#4ca260"/><path d="M810.4,706.63C795.16,709.76,785.45,721,789,735l55.2-11.31C840.65,709.71,825.65,703.51,810.4,706.63Z" transform="translate(-20 -148.38)" style="fill:#f4de7b"/><rect x="640.31" y="385.08" width="34.43" height="59.29" style="fill:#8bc6ec"/><path d="M676.81,539.33s-4.35,11.9-7.16,43.84" transform="translate(-20 -148.38)" style="fill:none;stroke:#fde9db;stroke-linecap:round;stroke-miterlimit:10;stroke-width:6.0097421970606px"/><path d="M683.62,540.42s4.82,14.52,4.1,40.71" transform="translate(-20 -148.38)" style="fill:none;stroke:#fde9db;stroke-linecap:round;stroke-miterlimit:10;stroke-width:6.0097421970606px"/><path d="M676.81,523.92s-20.53-4.28-.33-26.68" transform="translate(-20 -148.38)" style="fill:none;stroke:#fde9db;stroke-linecap:round;stroke-miterlimit:10;stroke-width:3.60584531823635px"/><path d="M676.81,541.16" transform="translate(-20 -148.38)" style="fill:none;stroke:#fde9db;stroke-linecap:round;stroke-miterlimit:10;stroke-width:6.0097421970606px"/><path d="M685.19,571.23" transform="translate(-20 -148.38)" style="fill:none;stroke:#fde9db;stroke-linecap:round;stroke-miterlimit:10;stroke-width:6.0097421970606px"/><path d="M683.45,541" transform="translate(-20 -148.38)" style="fill:none;stroke:#fde9db;stroke-linecap:round;stroke-miterlimit:10;stroke-width:6.0097421970606px"/><path d="M680.8,523.92s23.58-.16,3.53-26.09" transform="translate(-20 -148.38)" style="fill:none;stroke:#fde9db;stroke-linecap:round;stroke-miterlimit:10;stroke-width:3.60584531823635px"/><path d="M670.6,525" transform="translate(-20 -148.38)" style="fill:none;stroke:#9a866d;stroke-linecap:round;stroke-miterlimit:10;stroke-width:3.97158248228813px"/><circle cx="680.01" cy="512.37" r="6.02" transform="translate(-33.4 -130.1) rotate(-1.53)" style="fill:#fde9db"/><path d="M679.34,516" transform="translate(-20 -148.38)" style="fill:none"/><path d="M685.88,524.91a6.24,6.24,0,1,1-12.48.33c-.09-3.45,3.14-5.52,6.1-5.6C682.61,519.56,685.79,521.46,685.88,524.91Z" transform="translate(-20 -148.38)" style="fill:#fde9db"/><rect x="673.57" y="525.07" width="12.49" height="12.65" transform="translate(-33.9 -130.1) rotate(-1.53)" style="fill:#fde9db"/><rect x="677.74" y="517.55" width="3.48" height="3.2" transform="translate(-33.58 -130.11) rotate(-1.53)" style="fill:#fde9db"/><rect x="673.59" y="525.72" width="12.48" height="13.45" transform="translate(-33.93 -130.1) rotate(-1.53)" style="fill:#90908f"/><polygon points="653.47 379.46 653.33 374.31 655.09 372.89 655.27 379.41 653.47 379.46" style="fill:#90908f"/><polygon points="664.17 379.17 663.99 372.39 665.82 373.61 665.97 379.13 664.17 379.17" style="fill:#90908f"/><polygon points="653.65 389.62 666.25 389.62 671.73 417.62 663.86 417.62 659.34 396.51 655.31 417.62 647.58 417.62 653.65 389.62" style="fill:#f58e6b"/><path d="M669.59,515c.11,6.15.1,5.84.1,5.84l1.93,0-.11-6s.05-3.4,2.68-4.19a6,6,0,0,0,1.71,6.16c2.42,2.39,1.57,0,3.85-2.78H680c3.19-.06,5.74-1.86,5.7-4s-2.65-3.88-5.84-3.82c-3,.05-5.37,1.61-5.67,3.57C672.7,509.69,669.5,510.31,669.59,515Z" transform="translate(-20 -148.38)" style="fill:#86765d"/><rect x="533.75" y="409.57" width="71.88" height="31.99" style="fill:#b3decf"/><path d="M590.08,518.12s-2.64-9.08,5.47-9.08c9.2,0,5.2,10,5.2,10l-8.24.75Z" transform="translate(-20 -148.38)" style="fill:#5f6060"/><path d="M592.51,542.42s-4.11,10.22-6.83,41.25" transform="translate(-20 -148.38)" style="fill:none;stroke:#fde9db;stroke-linecap:round;stroke-miterlimit:10;stroke-width:5.83771679208778px"/><path d="M599.13,543.48s4.68,14.11,4,39.54" transform="translate(-20 -148.38)" style="fill:none;stroke:#fde9db;stroke-linecap:round;stroke-miterlimit:10;stroke-width:5.83771679208778px"/><path d="M592.09,527.06s-20-.35-5.61-24.84" transform="translate(-20 -148.38)" style="fill:none;stroke:#fde9db;stroke-linecap:round;stroke-miterlimit:10;stroke-width:4.48653744750632px"/><path d="M592.51,544.19" transform="translate(-20 -148.38)" style="fill:none;stroke:#fde9db;stroke-linecap:round;stroke-miterlimit:10;stroke-width:5.83771679208778px"/><path d="M600.65,573.4" transform="translate(-20 -148.38)" style="fill:none;stroke:#fde9db;stroke-linecap:round;stroke-miterlimit:10;stroke-width:5.83771679208778px"/><path d="M599,544" transform="translate(-20 -148.38)" style="fill:none;stroke:#fde9db;stroke-linecap:round;stroke-miterlimit:10;stroke-width:5.83771679208778px"/><path d="M596.38,525.72s19.74,7.57,9.4-23.49" transform="translate(-20 -148.38)" style="fill:none;stroke:#fde9db;stroke-linecap:round;stroke-miterlimit:10;stroke-width:4.48653744750632px"/><path d="M586.47,528.5" transform="translate(-20 -148.38)" style="fill:none;stroke:#9a866d;stroke-linecap:round;stroke-miterlimit:10;stroke-width:3.85789822387972px"/><circle cx="595.61" cy="516.22" r="5.85" transform="translate(-33.53 -132.34) rotate(-1.53)" style="fill:#fde9db"/><path d="M595,519.78" transform="translate(-20 -148.38)" style="fill:none"/><path d="M601.32,528.41a6.06,6.06,0,0,1-12.13.32c-.09-3.35,3-5.36,5.92-5.44C598.15,523.21,601.23,525.06,601.32,528.41Z" transform="translate(-20 -148.38)" style="fill:#fde9db"/><rect x="589.36" y="528.57" width="12.13" height="12.29" transform="translate(-34.02 -132.34) rotate(-1.53)" style="fill:#fde9db"/><rect x="593.42" y="521.26" width="3.38" height="3.11" transform="translate(-33.71 -132.35) rotate(-1.53)" style="fill:#fde9db"/><rect x="589.38" y="529.19" width="12.13" height="13.07" transform="translate(-34.05 -132.34) rotate(-1.53)" style="fill:#f4de7b"/><polygon points="569.26 382.87 569.09 376.49 571.81 375.71 572.09 382.8 569.26 382.87" style="fill:#f4de7b"/><polygon points="578.66 382.62 578.66 375.49 581.24 376.49 581.4 382.55 578.66 382.62" style="fill:#f4de7b"/><polygon points="569.34 392.56 581.56 392.2 585.78 410.54 576.91 410.49 575.26 401.06 573.12 410.95 565.56 410.74 569.34 392.56" style="fill:#fff"/><ellipse cx="575.73" cy="364.16" rx="4.56" ry="2.27" style="fill:#5f6060"/><polygon points="202.78 439.17 188.45 443.13 184.53 428.94 198.69 424.6 202.78 439.17" style="fill:#fff"/><path d="M205.2,579.55c-.13-.42-3.19-10.24-.47-15.26a5.35,5.35,0,0,1,3.36-2.73,4.88,4.88,0,0,1,3.92.56c4.79,2.83,7.27,13.15,7.38,13.59l-1.69.4c0-.1-2.41-10-6.57-12.49a3.17,3.17,0,0,0-2.57-.38,3.63,3.63,0,0,0-2.3,1.88c-2.37,4.37.57,13.82.6,13.91Z" transform="translate(-20 -148.38)" style="fill:#fff"/><path d="M177.09,615.29s21.92-10,11.58-35.53" transform="translate(-20 -148.38)" style="fill:none;stroke:#9a866d;stroke-linecap:round;stroke-miterlimit:10;stroke-width:6.10799396038055px"/><path d="M198.29,616.38s11.92-22.45-7.5-35.67" transform="translate(-20 -148.38)" style="fill:none;stroke:#9a866d;stroke-linecap:round;stroke-miterlimit:10;stroke-width:6.10799396038055px"/><polygon points="175.2 435.61 176.32 428.37 165.79 425.16 164.88 439.01 175.2 438.25 175.2 435.61" style="fill:#31b4b1"/><circle cx="172.95" cy="392.75" r="6.98" style="fill:#9a866d"/><polygon points="178.96 427.84 165.46 428.35 173.19 439.79 182.92 438.51 178.96 427.84" style="fill:#80cecd"/><polygon points="176.19 400.96 169.72 400.96 170.89 396.4 175.01 396.4 176.19 400.96" style="fill:#9a866d"/><path d="M199.94,576.73V554.06s-.83-6-6.61-6v28.71Z" transform="translate(-20 -148.38)" style="fill:#fff"/><path d="M190.8,553.28s-16,5.94-1.58,20" transform="translate(-20 -148.38)" style="fill:none;stroke:#9a866d;stroke-linecap:round;stroke-miterlimit:10;stroke-width:6.10799396038055px"/><path d="M190.09,552.16s-2.27-2.05-4.66.74c-1.69,2-2.63,3.23-2.63,3.23l2.64,1,2.17,2.91L189.9,557S192.16,554.25,190.09,552.16Z" transform="translate(-20 -148.38)" style="fill:#fff"/><path d="M185.11,576.73l1.12-22.67s.89-6,7.15-6v28.71Z" transform="translate(-20 -148.38)" style="fill:#fff"/><path d="M192.68,556.59s-3.56,18.44,16.45,7.24" transform="translate(-20 -148.38)" style="fill:none;stroke:#9a866d;stroke-linecap:round;stroke-miterlimit:10;stroke-width:6.10799396038055px"/><polygon points="155.65 464.82 160.75 460.49 165.46 464.55 159.03 469.68 155.46 467.77 155.65 464.82" style="fill:#edf8fd"/><polygon points="163.14 466.39 158.41 462.48 159.03 461.96 163.78 465.88 163.14 466.39" style="fill:#f2714c"/><polygon points="164.18 465.57 159.41 461.63 160.03 461.11 164.81 465.05 164.18 465.57" style="fill:#f2714c"/><path d="M192.8,551.58a3,3,0,0,0-3.15,2.94c-.07,2.17,0,3.49,0,3.49l2.75-1.43,3.46,1.43-.18-3.22A3.15,3.15,0,0,0,192.8,551.58Z" transform="translate(-20 -148.38)" style="fill:#fff"/><polygon points="160.17 473.98 152.47 467.96 155.78 463.74 163.48 469.76 160.17 473.98" style="fill:#4eaa84"/><path d="M184.72,619.92a2.29,2.29,0,0,1-2,3.22,4.18,4.18,0,0,1-4-2.76,2.29,2.29,0,0,1,2-3.22A4.18,4.18,0,0,1,184.72,619.92Z" transform="translate(-20 -148.38)" style="fill:#4eaa84"/><polygon points="174.51 470.25 176.22 465.09 182.34 466.1 179.52 473.83 175.49 474.05 174.51 470.25" style="fill:#edf8fd"/><polygon points="181.33 468.88 175.25 468.01 175.5 467.24 181.61 468.12 181.33 468.88" style="fill:#f2714c"/><polygon points="181.78 467.64 175.66 466.76 175.92 465.99 182.05 466.87 181.78 467.64" style="fill:#f2714c"/><polygon points="182.88 477.01 173.25 475.32 174.18 470.04 183.81 471.73 182.88 477.01" style="fill:#4eaa84"/><path d="M205.74,621.1a2.29,2.29,0,0,1-.27,3.79,4.18,4.18,0,0,1-4.85-.54,2.29,2.29,0,0,1,.27-3.79A4.18,4.18,0,0,1,205.74,621.1Z" transform="translate(-20 -148.38)" style="fill:#4eaa84"/><path d="M186.65,537.76s-6.52-1-6.39,6.21l.12,6.85,2.26,0-.13-7.09s.06-4.83,4.14-5.1,4-1.58,4-1.58Z" transform="translate(-20 -148.38)" style="fill:#5f6060"/><ellipse cx="192.44" cy="538.14" rx="6.77" ry="4.61" transform="matrix(1, -0.02, 0.02, 1, -29.54, -144.87)" style="fill:#5f6060"/><path d="M185.74,538.56a7,7,0,0,0,1.93,7.43c3.2,3.17,1.51-.88,5.74-4.5,4-3.44,3-5.81-.13-5.71S185.74,538.56,185.74,538.56Z" transform="translate(-20 -148.38)" style="fill:#5f6060"/><path d="M199.75,539.54l-14.52,1.22s-.38-7.31,6.21-7.69C199.48,532.6,199.75,539.54,199.75,539.54Z" transform="translate(-20 -148.38)" style="fill:#fff"/><path d="M199.48,538.46l6.19-.32a1.65,1.65,0,0,1-1.24.89c-.93.15-4.68.51-4.68.51Z" transform="translate(-20 -148.38)" style="fill:#fff"/><path d="M185.31,539.93l1.42-.24s-.06-1.88-1.21-1.95l-.21.48-.11.76Z" transform="translate(-20 -148.38)" style="fill:#5f6060"/><path d="M1241.26,782.51s-25.24-11.58-13.55-39.74" transform="translate(-20 -148.38)" style="fill:none;stroke:#86765d;stroke-linecap:round;stroke-miterlimit:10;stroke-width:7.34546020956301px"/><path d="M1214.44,785.16s-4.59-21.82,10.18-43.63" transform="translate(-20 -148.38)" style="fill:none;stroke:#86765d;stroke-linecap:round;stroke-miterlimit:10;stroke-width:8.28874450285082px"/><circle cx="1202.56" cy="547.93" r="8.4" style="fill:#86765d"/><polygon points="1200.42 590.13 1211.58 590.74 1211.58 615.39 1201.39 615.16 1200.42 590.13" style="fill:#aaabab"/><polygon points="1195.33 590.13 1211.58 590.74 1200.51 617.28 1187.48 614.97 1195.33 590.13" style="fill:#fff"/><polygon points="1198.67 557.8 1206.45 557.8 1205.04 552.31 1200.09 552.31 1198.67 557.8" style="fill:#86765d"/><path d="M1225.15,710.92s19.21,7.14,1.9,24.1" transform="translate(-20 -148.38)" style="fill:none;stroke:#b2a083;stroke-linecap:round;stroke-miterlimit:10;stroke-width:6.529297964056px"/><path d="M1226,709.58s2.73-2.47,5.61.89c2,2.37,3.16,3.88,3.16,3.88l-2.43,1.92-3.37,2.8-2.74-3.72S1223.52,712.09,1226,709.58Z" transform="translate(-20 -148.38)" style="fill:#f8ae99"/><path d="M1232,738l-.91-26.71s-.08-6.65-8.08-6.69h0a10.39,10.39,0,0,0-10,7.25V738h19Z" transform="translate(-20 -148.38)" style="fill:#f58e6b"/><polygon points="1222.34 644.45 1228.91 634.29 1222.92 630.32 1216.34 640.48 1222.34 644.45" style="fill:#f4e967"/><path d="M1235.66,791.48a3.23,3.23,0,0,0,4,3.22,4.84,4.84,0,0,0,3.62-4.83,3.23,3.23,0,0,0-4-3.22A4.84,4.84,0,0,0,1235.66,791.48Z" transform="translate(-20 -148.38)" style="fill:#f4e967"/><rect x="1237.18" y="775.97" width="8.15" height="13.08" transform="translate(-115.41 1239.41) rotate(-56.59)" style="fill:#f4e967"/><polygon points="1186.69 650.12 1200.1 648.91 1199.47 640.93 1186.06 642.14 1186.69 650.12" style="fill:#f4e967"/><path d="M1203.29,791.72a3.59,3.59,0,0,0-.1,5.68,5.39,5.39,0,0,0,6.72-.14,3.59,3.59,0,0,0,.1-5.68A5.39,5.39,0,0,0,1203.29,791.72Z" transform="translate(-20 -148.38)" style="fill:#f4e967"/><rect x="1210.45" y="783.19" width="9.07" height="14.55" transform="translate(-80.07 -47.3) rotate(-4.65)" style="fill:#f4e967"/><rect x="1222.27" y="715.84" width="26.2" height="12.23" rx="1.64" ry="1.64" transform="translate(1893.28 -686.51) rotate(87.98)" style="fill:#f4e967"/><path d="M1243.82,729.49l-.36-10.29c0-1-1.56-1.8-3.38-1.73h0c-1.82.06-3.29,1-3.25,2l.36,10.29c0,1,1.56,1.8,3.38,1.73h0C1242.4,731.39,1243.86,730.5,1243.82,729.49Z" transform="translate(-20 -148.38)" style="fill:#f4e967"/><path d="M1229.09,710.39a8.76,8.76,0,0,0-10.16-2.35c-6.19,2.62-5.18,21.21,5.08,20.72s9.1-5.68,9.1-5.68Z" transform="translate(-20 -148.38)" style="fill:none;stroke:#f4e967;stroke-miterlimit:10;stroke-width:2.6045635110097px"/><path d="M1222.89,713.81s1.64,19.2-5.33,32.65" transform="translate(-20 -148.38)" style="fill:none;stroke:#86765d;stroke-linecap:round;stroke-miterlimit:10;stroke-width:6.529297964056px"/><path d="M1222.75,708.87s3.68-.16,3.79,3.54c.08,2.61,0,4.19,0,4.19h-7.47l.22-3.87A3.79,3.79,0,0,1,1222.75,708.87Z" transform="translate(-20 -148.38)" style="fill:#f8ae99"/><polyline points="47 144.12 47 210.12 138.5 210.12 138.5 144.12" style="fill:none;stroke:#f1d454;stroke-linecap:round;stroke-linejoin:round;stroke-width:9px"/><polygon points="313.78 630.83 1125.71 636.07 1202.09 703.62 400.04 704.04 313.78 630.83" style="fill:#f2d1ba"/><path d="M1153.65,820.47S1130,809.63,1141,783.29" transform="translate(-20 -148.38)" style="fill:none;stroke:#fde9db;stroke-linecap:round;stroke-miterlimit:10;stroke-width:6.8736913142733px"/><path d="M1128.55,823s-4.29-20.41,9.53-40.83" transform="translate(-20 -148.38)" style="fill:none;stroke:#fde9db;stroke-linecap:round;stroke-miterlimit:10;stroke-width:7.75639231171681px"/><circle cx="1116.15" cy="591.42" r="7.86" style="fill:#fde9db"/><polygon points="1114.15 630.92 1124.59 631.49 1124.59 654.55 1115.06 654.34 1114.15 630.92" style="fill:#aaabab"/><polygon points="1109.39 630.92 1124.59 631.49 1114.23 656.33 1102.05 654.16 1109.39 630.92" style="fill:#fff"/><polygon points="1112.51 600.66 1119.8 600.66 1118.47 595.53 1113.84 595.53 1112.51 600.66" style="fill:#fde9db"/><path d="M1138.58,753.48s18,6.68,1.78,22.55" transform="translate(-20 -148.38)" style="fill:none;stroke:#fde9db;stroke-linecap:round;stroke-miterlimit:10;stroke-width:6.1099478349096px"/><path d="M1139.38,752.22s2.56-2.31,5.25.83c1.9,2.22,3,3.63,3,3.63l-2.27,1.79-3.15,2.62-2.57-3.48S1137,754.57,1139.38,752.22Z" transform="translate(-20 -148.38)" style="fill:#9edcf6"/><path d="M1145,780l-1.63-25.58s-.35-6.81-8.35-6.85h0c-7,0-8,6.79-8,6.79V780h18Z" transform="translate(-20 -148.38)" style="fill:#5fafe1"/><polygon points="1134.66 681.75 1140.81 672.24 1135.2 668.52 1129.05 678.03 1134.66 681.75" style="fill:#5f6060"/><path d="M1148.41,828.87a3,3,0,0,0,3.7,3,4.53,4.53,0,0,0,3.39-4.52,3,3,0,0,0-3.7-3A4.53,4.53,0,0,0,1148.41,828.87Z" transform="translate(-20 -148.38)" style="fill:#5f6060"/><rect x="1149.83" y="814.35" width="7.63" height="12.24" transform="translate(-186.47 1183.34) rotate(-56.59)" style="fill:#5f6060"/><polygon points="1101.3 687.05 1113.85 685.92 1113.26 678.45 1100.71 679.58 1101.3 687.05" style="fill:#5f6060"/><path d="M1118.12,829.09a3.36,3.36,0,0,0-.1,5.31,5,5,0,0,0,6.28-.13,3.36,3.36,0,0,0,.1-5.31A5,5,0,0,0,1118.12,829.09Z" transform="translate(-20 -148.38)" style="fill:#5f6060"/><rect x="1124.82" y="821.11" width="8.49" height="13.62" transform="translate(-83.39 -54.14) rotate(-4.65)" style="fill:#5f6060"/><path d="M1143.83,735a9.47,9.47,0,0,0-8.13-5c-4.13,0-7.5,2.71-7.53,5.31,0,2.44,2.9,4.47,6.67,4.75l.2.18c4.7,4,2.88,8.61,6.62,5.32C1143,744.46,1146.33,739.79,1143.83,735Z" transform="translate(-20 -148.38)" style="fill:#5f6060"/><rect x="1135.8" y="757.06" width="24.52" height="11.44" rx="1.64" ry="1.64" transform="matrix(0.04, 1, -1, 0.04, 1849.86, -559.86)" style="fill:#f58e6b"/><path d="M1156.65,770.06l-.34-9.63c0-1-1.46-1.68-3.16-1.62h0c-1.71.06-3.08.89-3,1.84l.34,9.63c0,1,1.46,1.68,3.16,1.62h0C1155.31,771.84,1156.68,771,1156.65,770.06Z" transform="translate(-20 -148.38)" style="fill:#f58e6b"/><path d="M1143.36,751.88a8.2,8.2,0,0,0-9.51-2.2c-5.8,2.45-4.85,19.85,4.76,19.39s8.52-5.32,8.52-5.32Z" transform="translate(-20 -148.38)" style="fill:none;stroke:#f58e6b;stroke-miterlimit:10;stroke-width:2.43728303909302px"/><path d="M1136.46,756.18s-5.27,23-22.46-1.14" transform="translate(-20 -148.38)" style="fill:none;stroke:#fde9db;stroke-linecap:round;stroke-miterlimit:10;stroke-width:6.1099478349096px"/><path d="M1137.47,751.65s4,.84,3.06,4.8c-.63,2.8-1.15,4.46-1.15,4.46l-3.88-1-4.07-1,1.29-4.05S1133.65,751,1137.47,751.65Z" transform="translate(-20 -148.38)" style="fill:#9edcf6"/>

<use xlink:href="#crenellation" style="fill:#f58e6b" />
<use xlink:href="#crenellation" x="411" style="fill:#f58e6b" />

<polygon points="276.78 365.62 268.78 365.62 268.78 141.39 276.78 134.72 276.78 365.62" style="fill:#fff"/></svg>