<svg xmlns="http://www.w3.org/2000/svg" width="973.31" height="419.33" viewBox="0 0 973.31 419.33" xmlns:xlink="http://www.w3.org/1999/xlink">
<defs>
	<path id="seat" d="M207.57,582.27H172.88V554.55a17.31,17.31,0,0,1,17.31-17.31h0a17.39,17.39,0,0,1,17.39,17.39h0Z" transform="translate(-14.34 -290.68)" style="fill:#a4dbda"/>
	<g id="banner">
		<polygon points="278.13 101.05 242.05 120.73 205.99 101.05 205.99 0 278.13 0 278.13 101.05" style="fill:#f5df7b"/><rect x="205.99" width="72.14" height="17.21" style="fill:#f4cb25"/><path d="M255.75,378.05a31.32,31.32,0,1,1,31.32-31.32h0A31.4,31.4,0,0,1,255.75,378.05Zm0-58.59a27.18,27.18,0,1,0,27.18,27.18h0a27.21,27.21,0,0,0-27.18-27.13Z" transform="translate(-14.34 -290.68)" style="fill:#f4cb25"/><path d="M255.58,329.4h-7.66s2.46,3.51-1.82,5.6-3.93-4.09-3.93-4.09l-6.06,4.84s8.61,2.41,6,5.05-7,2.61-7,2.61,3.23,25.09,20.37,25.09Z" transform="translate(-14.34 -290.68)" style="fill:#f4cb25"/><path d="M254.85,329.4h7.66s-2.46,3.51,1.82,5.6,3.93-4.09,3.93-4.09l6.06,4.84s-8.61,2.41-6,5.05,7,2.61,7,2.61-3.23,25.09-20.37,25.09Z" transform="translate(-14.34 -290.68)" style="fill:#f4cb25"/><path d="M254.63,371.83s-10.1-6.06-15.54-15.15h32.33S267,368.34,254.63,371.83Z" transform="translate(-14.34 -290.68)" style="fill:#f4cb25"/><path d="M746.53,329.4h-7.66s2.46,3.51-1.82,5.6-3.93-4.09-3.93-4.09l-6.06,4.84s8.61,2.41,6,5.05-7,2.61-7,2.61,3.23,25.09,20.37,25.09Z" transform="translate(-14.34 -290.68)" style="fill:#f4cb25"/>
	</g>
</defs>
	<polygon points="205.79 212.3 0 0 973.31 0 767.55 212.3 205.79 212.3" style="fill:#cdbc9d"/><rect x="158.54" y="263.7" width="659.18" height="28" style="fill:#34b7b3"/><rect x="99.28" y="327.5" width="773.31" height="28" style="fill:#34b7b3"/><rect x="18.34" y="392" width="921.24" height="28" style="fill:#34b7b3"/><circle cx="175.89" cy="245.37" r="8.5" style="fill:#b3a184"/><circle cx="223.92" cy="245.37" r="8.5" style="fill:#f5df7b"/><circle cx="271.97" cy="245.37" r="8.5" style="fill:#b3a184"/><circle cx="320" cy="245.37" r="8.5" style="fill:#b3a184"/><circle cx="368.04" cy="245.37" r="8.5" style="fill:#fbcfc8"/><circle cx="416.08" cy="245.37" r="8.5" style="fill:#b3a184"/><circle cx="464.11" cy="245.37" r="8.5" style="fill:#b3a184"/><circle cx="512.15" cy="245.37" r="8.5" style="fill:#b3a184"/><circle cx="560.18" cy="245.37" r="8.5" style="fill:#b3a184"/><circle cx="608.23" cy="245.37" r="8.5" style="fill:#f6916c"/><circle cx="656.26" cy="245.37" r="8.5" style="fill:#b3a184"/><circle cx="704.3" cy="245.37" r="8.5" style="fill:#b3a184"/><circle cx="752.34" cy="245.37" r="8.5" style="fill:#b3a184"/><circle cx="800.38" cy="245.37" r="8.5" style="fill:#fbcfc8"/><circle cx="105.78" cy="310.85" r="8.5" style="fill:#b3a184"/><circle cx="153.7" cy="310.85" r="8.5" style="fill:#b3a184"/><circle cx="201.63" cy="310.85" r="8.5" style="fill:#78706f"/><circle cx="249.55" cy="310.85" r="8.5" style="fill:#b3a184"/><circle cx="297.47" cy="310.85" r="8.5" style="fill:#b3a184"/><circle cx="345.4" cy="310.85" r="8.5" style="fill:#b3a184"/><circle cx="393.33" cy="310.85" r="8.5" style="fill:#b3a184"/><circle cx="441.25" cy="310.85" r="8.5" style="fill:#78706f"/><circle cx="872.59" cy="310.85" r="8.5" style="fill:#78706f"/><circle cx="489.18" cy="310.85" r="8.5" style="fill:#b3a184"/><circle cx="537.1" cy="310.85" r="8.5" style="fill:#b3a184"/><circle cx="585.03" cy="310.85" r="8.5" style="fill:#b3a184"/><circle cx="632.96" cy="310.85" r="8.5" style="fill:#b3a184"/><circle cx="680.88" cy="310.85" r="8.5" style="fill:#b3a184"/><circle cx="728.81" cy="310.85" r="8.5" style="fill:#f5df7b"/><circle cx="776.73" cy="310.85" r="8.5" style="fill:#f5df7b"/><circle cx="824.65" cy="310.85" r="8.5" style="fill:#b3a184"/><circle cx="34.09" cy="373.8" r="8.5" style="fill:#f5df7b"/><circle cx="81.96" cy="373.8" r="8.5" style="fill:#b3a184"/><circle cx="129.83" cy="373.8" r="8.5" style="fill:#78706f"/><circle cx="177.7" cy="373.8" r="8.5" style="fill:#b3a184"/><circle cx="225.58" cy="373.8" r="8.5" style="fill:#f5df7b"/><circle cx="847.92" cy="373.8" r="8.5" style="fill:#f5df7b"/><circle cx="273.45" cy="373.8" r="8.5" style="fill:#b3a184"/><circle cx="321.32" cy="373.8" r="8.5" style="fill:#fbcfc8"/><circle cx="943.67" cy="373.8" r="8.5" style="fill:#fbcfc8"/><circle cx="369.2" cy="373.8" r="8.5" style="fill:#b3a184"/><circle cx="417.07" cy="373.8" r="8.5" style="fill:#b3a184"/><circle cx="464.94" cy="373.8" r="8.5" style="fill:#b3a184"/><circle cx="512.82" cy="373.8" r="8.5" style="fill:#78706f"/><circle cx="560.69" cy="373.8" r="8.5" style="fill:#b3a184"/><circle cx="608.55" cy="373.8" r="8.5" style="fill:#b3a184"/><circle cx="656.43" cy="373.8" r="8.5" style="fill:#b3a184"/><circle cx="704.3" cy="373.8" r="8.5" style="fill:#b3a184"/><circle cx="752.17" cy="373.8" r="8.5" style="fill:#b3a184"/><circle cx="800.05" cy="373.8" r="8.5" style="fill:#f6916c"/><circle cx="895.79" cy="373.8" r="8.5" style="fill:#f6916c"/><polygon points="767.8 212.85 205.86 212.85 150.98 156.24 820.71 156.24 767.8 212.85" style="fill:#b3a184"/><use xlink:href="#seat" /> <use xlink:href="#seat" x="48" y="0" /> <use xlink:href="#seat" x="96" y="0" /> <use xlink:href="#seat" x="144" y="0" /> <use xlink:href="#seat" x="192" y="0" /> <use xlink:href="#seat" x="240" y="0" /> <use xlink:href="#seat" x="288" y="0" /> <use xlink:href="#seat" x="336" y="0" /> <use xlink:href="#seat" x="384" y="0" /> <use xlink:href="#seat" x="432" y="0" /> <use xlink:href="#seat" x="480" y="0" /> <use xlink:href="#seat" x="528" y="0" /> <use xlink:href="#seat" x="576" y="0" /> <use xlink:href="#seat" x="624" y="0" /> <use xlink:href="#seat" x="-70" y="64" /> <use xlink:href="#seat" x="-22" y="64" /> <use xlink:href="#seat" x="26" y="64" /> <use xlink:href="#seat" x="74" y="64" /> <use xlink:href="#seat" x="122" y="64" /> <use xlink:href="#seat" x="170" y="64" /> <use xlink:href="#seat" x="218" y="64" /> <use xlink:href="#seat" x="266" y="64" /> <use xlink:href="#seat" x="314" y="64" /> <use xlink:href="#seat" x="362" y="64" /> <use xlink:href="#seat" x="410" y="64" /> <use xlink:href="#seat" x="458" y="64" /> <use xlink:href="#seat" x="506" y="64" /> <use xlink:href="#seat" x="554" y="64" /> <use xlink:href="#seat" x="602" y="64" /> <use xlink:href="#seat" x="650" y="64" /> <use xlink:href="#seat" x="698" y="64" /> <use xlink:href="#seat" x="-142" y="128" /> <use xlink:href="#seat" x="-94" y="128" /> <use xlink:href="#seat" x="-46" y="128" /> <use xlink:href="#seat" x="2" y="128" /> <use xlink:href="#seat" x="50" y="128" /> <use xlink:href="#seat" x="98" y="128" /> <use xlink:href="#seat" x="146" y="128" /> <use xlink:href="#seat" x="194" y="128" /> <use xlink:href="#seat" x="242" y="128" /> <use xlink:href="#seat" x="290" y="128" /> <use xlink:href="#seat" x="338" y="128" /> <use xlink:href="#seat" x="386" y="128" /> <use xlink:href="#seat" x="434" y="128" /> <use xlink:href="#seat" x="482" y="128" /> <use xlink:href="#seat" x="530" y="128" /> <use xlink:href="#seat" x="578" y="128" /> <use xlink:href="#seat" x="626" y="128" /> <use xlink:href="#seat" x="674" y="128" /> <use xlink:href="#seat" x="722" y="128" /> <use xlink:href="#seat" x="770" y="128" /> <use xlink:href="#seat" x="818" y="128" /> <use xlink:href="#seat" x="866" y="128" /> <use xlink:href="#seat" x="914" y="128" /><rect x="304.77" width="364.99" height="156.95" style="fill:#78706f"/><rect x="458.39" y="119.06" width="56.89" height="93.79" style="fill:#cdbc9d"/><rect x="448.64" y="114.62" width="76.38" height="7.66" style="fill:#cdbc9d"/><path d="M625.53,358.36" transform="translate(-14.34 -290.68)" style="fill:#cfe5c1"/><use xlink:href="#banner" /><use xlink:href="#banner" x="489" y="0" /><polygon points="499.99 158.55 486.82 165.56 473.65 158.55 473.65 122.56 499.99 122.56 499.99 158.55" style="fill:#f5df7b"/><rect x="485.7" y="101.59" width="2.96" height="13.12" style="fill:#a4dbda"/><path d="M502.27,385.16l5.27,5.27a3.6,3.6,0,0,1,0,5.1h0a3.6,3.6,0,0,1-5.1,0l-5.27-5.27a3.6,3.6,0,0,1,0-5.1h0A3.6,3.6,0,0,1,502.27,385.16Z" transform="translate(-14.34 -290.68)" style="fill:#a4dbda"/><path d="M636,307.18H540.83a.51.51,0,1,1,0-1H636a.51.51,0,1,1,0,1Z" transform="translate(-14.34 -290.68)" style="fill:#fff"/><path d="M636,321.32H540.83a.51.51,0,0,1,0-1H636a.51.51,0,0,1,0,1Z" transform="translate(-14.34 -290.68)" style="fill:#fff"/><path d="M575.31,398.83a.52.52,0,0,1-.35-.14L511.65,339a.52.52,0,0,1,.71-.75l63.3,59.7a.52.52,0,0,1-.35.89Z" transform="translate(-14.34 -290.68)" style="fill:#fff"/><path d="M575.31,398.83a.51.51,0,0,1-.51-.51h0v-51a.51.51,0,1,1,1,0v51a.51.51,0,0,1-.49.52Z" transform="translate(-14.34 -290.68)" style="fill:#fff"/><path d="M414.83,412.77a.9.9,0,0,1-.66-.28l-53.82-57a.9.9,0,0,1,1.3-1.23l53.83,56.93a.9.9,0,0,1-.66,1.52Z" transform="translate(-14.34 -290.68)" style="fill:#fff"/><path d="M414.73,413.25H338.57a1,1,0,1,1,0-2h76.17a1,1,0,0,1,0,2Z" transform="translate(-14.34 -290.68)" style="fill:#fff"/><path d="M402.74,417.64a.44.44,0,0,1-.38-.21c-.72-1.16-2.86-5.42-.4-11.32,2.65-6.35,7.81-7.29,9.33-7.44a.45.45,0,1,1,.08.89h0c-1.39.12-6.13,1-8.59,6.88-2.29,5.51-.32,9.45.33,10.52a.44.44,0,0,1-.38.69Z" transform="translate(-14.34 -290.68)" style="fill:#fff"/><polygon points="395.76 107.27 395.58 107.53 396.88 108.47 395.85 109.69 396.1 109.9 397.34 108.41 395.76 107.27" style="fill:#fff"/><polygon points="386.74 126.21 386.85 125.91 388.36 126.39 388.73 124.84 389.05 124.92 388.59 126.8 386.74 126.21" style="fill:#fff"/><path d="M448.78,386.26a36.37,36.37,0,1,1,36.37-36.37A36.37,36.37,0,0,1,448.78,386.26Zm0-70.69a34.35,34.35,0,1,0,34.35,34.35h0a34.39,34.39,0,0,0-34.35-34.36Z" transform="translate(-14.34 -290.68)" style="fill:#fff"/><path d="M576,347l.29-.15c.19-.09.48-.26.82-.41s.77-.35,1.24-.51l.75-.28a.3.3,0,0,1,.33.07,1.17,1.17,0,0,0,.33.13l6.73,2.19,6.73,2.19a1.45,1.45,0,0,0,.34.09.28.28,0,0,1,.3.16l.44.67c.28.41.51.81.7,1.14s.33.61.43.8l.15.29-.29.15c-.19.09-.47.25-.82.39s-.77.34-1.23.51l-.75.28a.28.28,0,0,1-.34,0,1.45,1.45,0,0,0-.33-.13l-6.73-2.19-6.73-2.19a1.17,1.17,0,0,0-.35-.08.3.3,0,0,1-.31-.14l-.44-.67c-.28-.41-.51-.81-.7-1.14s-.33-.62-.42-.81Z" transform="translate(-14.34 -290.68)" style="fill:#fff"/><circle cx="619.33" cy="59.51" r="9.71" style="fill:#feeadc"/><polygon points="614.83 70.92 623.83 70.92 622.19 64.58 616.47 64.58 614.83 70.92" style="fill:#feeadc"/><path d="M633.57,360.58" transform="translate(-14.34 -290.68)" style="fill:#cee5c0"/><path d="M616,374.53a31.56,31.56,0,0,1-12-2.18,39.83,39.83,0,0,1-21.06-19.67,4,4,0,0,1,7.34-3A32.41,32.41,0,0,0,607,365c7.31,3,16.91,1,20-.09a4,4,0,0,1,2.56,7.52A46.19,46.19,0,0,1,616,374.53Z" transform="translate(-14.34 -290.68)" style="fill:#feeadc"/><polygon points="614.29 70.86 598.96 75.39 599.18 87.88 613.02 86.67 614.29 70.86" style="fill:#a4dbda"/><path d="M653.13,414.11a4,4,0,0,1-3.66-5.5c0-.08,3.63-9.08,1.51-21.52-1.72-10.08-12.36-16.52-12.46-16.58a4,4,0,1,1,4.06-6.82c.57.34,13.9,8.41,16.23,22.07,2.53,14.82-1.82,25.47-2,25.92A4,4,0,0,1,653.13,414.11Z" transform="translate(-14.34 -290.68)" style="fill:#feeadc"/><path d="M633.57,360.58h.11c11,.07,12.56,11.11,12.56,11.11v32.42H620.78V371.69S622.39,360.66,633.57,360.58Z" transform="translate(-14.34 -290.68)" style="fill:#a4dbda"/><polygon points="626.2 71.93 639.37 79.05 633.22 90.47 624.73 86.67 626.2 71.93" style="fill:#a4dbda"/><rect x="620.78" y="404.11" width="25.45" height="13.49" transform="translate(1252.67 531.04) rotate(-180)" style="fill:#eeedee"/><rect x="620.78" y="415.68" width="11.92" height="42.02" transform="translate(1239.13 582.7) rotate(-180)" style="fill:#eeedee"/><rect x="634.5" y="415.68" width="11.71" height="42.02" transform="translate(1266.36 582.7) rotate(-180)" style="fill:#eeedee"/><rect x="613.21" y="69.59" width="12" height="2.49" style="fill:#a4dbda"/><path d="M651.52,465.33h-36c0-5.09,5-9.22,11.13-9.22h13.76c6.14,0,11.13,4.13,11.13,9.22Z" transform="translate(-14.34 -290.68)" style="fill:#9c886d"/><path d="M653.49,356.19l-1.37,10.67-3.53-.45L650,355.35s.59-6.24-4.06-8.22a11,11,0,0,1-4.39,10.93c-4.92,3.89-2.86-.39-6.48-5.87l-.52,0c-5.83-.75-10.14-4.57-9.63-8.54s5.65-6.57,11.48-5.82c5.41.7,9.5,4,9.66,7.69C648.87,345.84,654.6,347.63,653.49,356.19Z" transform="translate(-14.34 -290.68)" style="fill:#f6906b"/></svg>