<svg xmlns="http://www.w3.org/2000/svg" width="942.36" height="352.39" viewBox="0 0 942.36 352.39" xmlns:xlink="http://www.w3.org/1999/xlink">

<defs>
	<g id="shrubs">
		<circle cx="64.85" cy="324.88" r="7.25" style="fill:#e2bd23"/> <circle cx="77.9" cy="324.88" r="7.25" style="fill:#e2bd23"/> <circle cx="90.94" cy="324.88" r="7.25" style="fill:#e2bd23"/> <circle cx="103.98" cy="324.88" r="7.25" style="fill:#e2bd23"/> <circle cx="117.03" cy="324.88" r="7.25" style="fill:#e2bd23"/> <circle cx="130.07" cy="324.88" r="7.25" style="fill:#e2bd23"/> <circle cx="143.11" cy="324.88" r="7.25" style="fill:#e2bd23"/> <circle cx="156.16" cy="324.88" r="7.25" style="fill:#e2bd23"/> <circle cx="169.2" cy="324.88" r="7.25" style="fill:#e2bd23"/> <circle cx="182.24" cy="324.88" r="7.25" style="fill:#e2bd23"/> <circle cx="195.29" cy="324.88" r="7.25" style="fill:#e2bd23"/> <circle cx="208.33" cy="324.88" r="7.25" style="fill:#e2bd23"/> <circle cx="221.37" cy="324.88" r="7.25" style="fill:#e2bd23"/> <circle cx="234.41" cy="324.88" r="7.25" style="fill:#e2bd23"/> <circle cx="247.46" cy="324.88" r="7.25" style="fill:#e2bd23"/>
	</g>
	<g id="house">
		<rect x="110.06" y="96.72" width="182.65" height="75.13" style="fill:#badef5"/><rect x="172.28" y="97.01" width="57.56" height="74.84" style="fill:#8cc8ed"/><polygon points="292.71 97.01 110.06 97.01 142.94 66.25 260.79 66.25 292.71 97.01" style="fill:#5fb0e2"/><rect x="137.11" y="82.38" width="12.3" height="11.78" style="fill:#8cc8ed"/><circle cx="143.26" cy="82.38" r="6.15" style="fill:#8cc8ed"/><rect x="194.79" y="134.43" width="12.67" height="37.42" style="fill:#5fb0e2"/><rect x="178.71" y="134.43" width="12.67" height="37.42" style="fill:#5fb0e2"/><rect x="211.16" y="134.43" width="12.67" height="37.42" style="fill:#5fb0e2"/><rect x="247.67" y="107.25" width="12.67" height="19.65" style="fill:#5fb0e2"/><rect x="178.71" y="107.25" width="12.67" height="19.65" style="fill:#5fb0e2"/><rect x="194.94" y="107.25" width="12.67" height="19.65" style="fill:#5fb0e2"/><rect x="211.16" y="107.25" width="12.67" height="19.65" style="fill:#5fb0e2"/><rect x="155.47" y="46.6" width="12.67" height="5.69" style="fill:#5fb0e2"/><rect x="155.47" y="52.29" width="12.67" height="13.96" style="fill:#badef5"/><rect x="233.94" y="46.6" width="12.67" height="5.69" style="fill:#5fb0e2"/><rect x="233.94" y="52.29" width="12.67" height="13.96" style="fill:#badef5"/><rect x="266.33" y="107.25" width="12.67" height="19.65" style="fill:#5fb0e2"/><rect x="247.67" y="143.31" width="12.67" height="19.65" style="fill:#5fb0e2"/><rect x="266.33" y="143.31" width="12.67" height="19.65" style="fill:#5fb0e2"/><rect x="123.39" y="107.25" width="12.67" height="19.65" style="fill:#5fb0e2"/><rect x="123.39" y="131.83" width="12.67" height="5.71" style="fill:#5fb0e2"/><rect x="142.05" y="131.83" width="12.67" height="5.71" style="fill:#5fb0e2"/><rect x="247.67" y="131.83" width="12.67" height="5.71" style="fill:#5fb0e2"/><rect x="266.33" y="131.83" width="12.67" height="5.71" style="fill:#5fb0e2"/><rect x="142.05" y="107.25" width="12.67" height="19.65" style="fill:#5fb0e2"/><rect x="123.39" y="143.31" width="12.67" height="19.65" style="fill:#5fb0e2"/><rect x="142.05" y="143.31" width="12.67" height="19.65" style="fill:#5fb0e2"/><rect x="142.23" y="76.04" width="2.06" height="18.12" style="fill:#5fb0e2"/><rect x="178.9" y="82.38" width="12.3" height="11.78" style="fill:#8cc8ed"/><circle cx="185.05" cy="82.38" r="6.15" style="fill:#8cc8ed"/><rect x="184.02" y="76.04" width="2.06" height="18.12" style="fill:#5fb0e2"/><rect x="194.91" y="82.38" width="12.3" height="11.78" style="fill:#8cc8ed"/><circle cx="201.06" cy="82.38" r="6.15" style="fill:#8cc8ed"/><rect x="200.03" y="76.04" width="2.06" height="18.12" style="fill:#5fb0e2"/><rect x="211.34" y="82.38" width="12.3" height="11.78" style="fill:#8cc8ed"/><circle cx="217.49" cy="82.38" r="6.15" style="fill:#8cc8ed"/><rect x="216.47" y="76.04" width="2.06" height="18.12" style="fill:#5fb0e2"/><rect x="253.09" y="82.38" width="12.3" height="11.78" style="fill:#8cc8ed"/><circle cx="259.24" cy="82.38" r="6.15" style="fill:#8cc8ed"/><rect x="258.22" y="76.04" width="2.06" height="18.12" style="fill:#5fb0e2"/>
	</g>
	<g id="tree">
		<polygon points="87.63 251.23 70.94 234.47 54.25 251.23 70.94 267.98 87.63 251.23" style="fill:#fbf3c9"/><path d="M100.07,580.5l-6.74-6.77A.92.92,0,1,0,92,575l8.08,8.11Z" transform="translate(-29.35 -323.53)" style="fill:#d1ab2b"/><path d="M100,607.41c-.94,0-1-.53-1-1.19v-36.9c0-.66.06-1.19,1-1.19s1,.53,1,1.19v36.9C101,606.88,100.94,607.41,100,607.41Z" transform="translate(-29.35 -323.53)" style="fill:#d1ab2b"/><path d="M100,580.5l6.74-6.77A.92.92,0,1,1,108,575l-8.08,8.11Z" transform="translate(-29.35 -323.53)" style="fill:#d1ab2b"/>
	</g>
</defs>

<use xlink:href="#shrubs" /><use xlink:href="#shrubs" x="195" /><use xlink:href="#shrubs" x="432" /> <use xlink:href="#shrubs" x="627" />
	
	<polygon points="898.42 19.33 829.09 19.33 829.09 56.75 771.8 56.75 771.8 32.09 740.28 14.18 713.91 31.81 713.91 9.97 655.61 9.97 655.61 25.28 597.72 25.28 597.72 43.14 539.83 43.14 539.83 84.82 485.63 84.82 485.63 53.75 427.74 53.75 427.74 30.79 398.28 11.91 369.44 30.79 369.44 63.96 313.57 63.96 313.57 32.49 256.48 32.49 256.48 5.27 198.18 5.27 198.18 31.64 142.31 31.64 142.31 14.63 112.56 0 84.01 14.63 84.01 63.59 44.67 63.59 44.67 186.22 898.42 188.14 898.42 19.33" style="fill:#e5f2f9"/><rect y="165.45" width="942.36" height="129.29" rx="64.65" ry="64.65" style="fill:#f5df7b"/><polygon points="640.63 137.03 640.63 125.27 626.94 125.27 626.94 137.03 617.1 137.03 617.1 125.27 603.4 125.27 603.4 137.03 567.76 137.03 567.76 171.84 657.53 171.84 657.53 137.03 640.63 137.03" style="fill:#f2d555"/><polygon points="888.07 122.7 879.03 122.7 879.03 112.43 865.21 112.43 865.21 122.7 849.84 122.7 849.84 112.43 836.02 112.43 836.02 122.7 825.36 122.7 807.86 142.36 807.86 142.36 807.86 171.84 905.19 171.84 905.19 142.18 888.07 122.7" style="fill:#f2d555"/><polygon points="133.02 142.36 115.52 122.7 104.85 122.7 104.85 112.43 91.03 112.43 91.03 122.7 75.66 122.7 75.66 112.43 61.84 112.43 61.84 122.7 52.8 122.7 35.69 142.18 35.69 171.84 133.02 171.84 133.02 142.36 133.02 142.36 133.02 142.36" style="fill:#f2d555"/><polygon points="347.4 132.34 347.4 120.06 325.03 109.56 300.58 120.06 300.58 132.34 286.83 132.34 286.83 171.84 372.11 171.84 372.11 132.34 347.4 132.34" style="fill:#f2d555"/><rect x="420.6" y="419.71" width="157.41" height="239.46" transform="translate(-70.28 714.36) rotate(-89.91)" style="fill:#badef5"/><rect x="317.86" y="495.8" width="183.96" height="60.44" transform="translate(-146.19 611.49) rotate(-89.91)" style="fill:#8cc8ed"/><rect x="294.8" y="512.56" width="179.27" height="9.59" transform="translate(-162.89 577.43) rotate(-89.91)" style="fill:#8cc8ed"/><rect x="312.71" y="512.59" width="179.27" height="9.59" transform="translate(-145.04 595.37) rotate(-89.91)" style="fill:#8cc8ed"/><rect x="330.62" y="512.62" width="179.27" height="9.59" transform="translate(-127.18 613.31) rotate(-89.91)" style="fill:#8cc8ed"/><rect x="343.03" y="518.13" width="190.24" height="9.59" transform="matrix(0, -1, 1, 0, -114.82, 636.72)" style="fill:#8cc8ed"/><rect x="493.99" y="496.08" width="183.96" height="60.44" transform="matrix(0, -1, 1, 0, 29.38, 787.9)" style="fill:#8cc8ed"/><rect x="470.93" y="512.84" width="179.27" height="9.59" transform="translate(12.68 753.84) rotate(-89.91)" style="fill:#8cc8ed"/><rect x="488.84" y="512.87" width="179.27" height="9.59" transform="translate(30.53 771.78) rotate(-89.91)" style="fill:#8cc8ed"/><rect x="506.75" y="512.9" width="179.27" height="9.59" transform="matrix(0, -1, 1, 0, 48.39, 789.72)" style="fill:#8cc8ed"/><rect x="519.16" y="518.41" width="190.24" height="9.59" transform="translate(60.75 813.12) rotate(-89.91)" style="fill:#8cc8ed"/><rect x="470.09" y="537.7" width="58.31" height="102.8" transform="translate(-120 763.88) rotate(-89.91)" style="fill:#8cc8ed"/><ellipse cx="499.28" cy="562.11" rx="51.86" ry="51.38" transform="translate(-92.98 736.96) rotate(-89.91)" style="fill:#8cc8ed"/><rect x="477.1" y="562.94" width="44.48" height="66.21" transform="translate(-126.84 770.9) rotate(-89.91)" style="fill:#5fb0e2"/><ellipse cx="499.38" cy="573.8" rx="41.21" ry="33.1" transform="translate(-104.57 748.73) rotate(-89.91)" style="fill:#5fb0e2"/><rect x="571.44" y="466.54" width="33.06" height="29.81" transform="translate(76.24 745.11) rotate(-89.91)" style="fill:#797979"/><ellipse cx="588" cy="464.91" rx="17.25" ry="14.91" transform="translate(92.79 728.63) rotate(-89.91)" style="fill:#797979"/><rect x="394.62" y="466.26" width="33.06" height="29.81" transform="translate(-100.01 568.01) rotate(-89.91)" style="fill:#797979"/><ellipse cx="411.18" cy="464.63" rx="17.25" ry="14.91" transform="translate(-83.46 551.54) rotate(-89.91)" style="fill:#797979"/><rect x="375.1" y="476.12" width="72.11" height="5.19" transform="translate(-97.56 565.57) rotate(-89.91)" style="fill:#8cc8ed"/><rect x="551.92" y="476.4" width="72.11" height="5.19" transform="translate(78.69 742.67) rotate(-89.91)" style="fill:#8cc8ed"/><rect x="468.6" y="589.52" width="42.18" height="16.28" transform="translate(-138.1 762.87) rotate(-89.91)" style="fill:#e8f5f5"/><rect x="486.35" y="480.47" width="26.11" height="14.61" transform="translate(-18.52 662.88) rotate(-89.91)" style="fill:#797979"/><polygon points="455.82 178.34 441.2 181.78 441.25 151.14 455.86 151.17 455.82 178.34" style="fill:#797979"/><polygon points="484.43 178.39 499.04 181.87 499.09 151.24 484.48 151.21 484.43 178.39" style="fill:#797979"/><polygon points="520.02 194.09 505.44 183.36 505.48 151.25 520.09 151.27 520.02 194.09" style="fill:#797979"/><polygon points="420.09 193.93 434.73 183.25 434.77 151.13 420.16 151.11 420.09 193.93" style="fill:#797979"/><rect x="487.88" y="589.51" width="42.18" height="16.28" transform="translate(-118.85 782.13) rotate(-89.91)" style="fill:#e8f5f5"/><rect x="581" y="500.49" width="12.25" height="63.88" transform="translate(24.41 795.18) rotate(-89.91)" style="fill:#badef5"/><rect x="405.43" y="500.21" width="12.25" height="63.88" transform="translate(-150.6 619.33) rotate(-89.91)" style="fill:#badef5"/><rect x="561.73" y="561.04" width="50.61" height="63.88" transform="translate(-36.24 855.53) rotate(-89.91)" style="fill:#badef5"/><rect x="570.17" y="569.5" width="29.15" height="68.4" transform="translate(-49.24 863.96) rotate(-89.91)" style="fill:#5fb0e2"/><rect x="386.16" y="560.76" width="50.61" height="63.88" transform="translate(-211.24 679.69) rotate(-89.91)" style="fill:#badef5"/><rect x="399.02" y="569.62" width="29.15" height="68.18" transform="translate(-220.12 692.81) rotate(-89.91)" style="fill:#5fb0e2"/><polygon points="187 297.09 187 171.43 215.5 171.89 215.5 302.81 187 297.09" style="fill:#fff"/><polygon points="724.5 297.09 724.5 171.31 753 171.13 753 302.81 724.5 297.09" style="fill:#fff"/>
<use xlink:href="#tree" /> <use xlink:href="#tree" x="40" /> <use xlink:href="#tree" x="80" /> <use xlink:href="#tree" x="170" /> <use xlink:href="#tree" x="210" /> <use xlink:href="#tree" x="250" /> <use xlink:href="#tree" x="546" /> <use xlink:href="#tree" x="586" /> <use xlink:href="#tree" x="626" /> <use xlink:href="#tree" x="716" /> <use xlink:href="#tree" x="756" /> <use xlink:href="#tree" x="796" /> <use xlink:href="#tree" x="-35" y="-70" /> <use xlink:href="#tree" x="835" y="-70" /><use xlink:href="#house" /><use xlink:href="#house" x="538" />
<path d="M77.66,663.81a12.08,12.08,0,0,0,12.08,12.08h9.19v0l380,0,.21-24.17H89.74A12.08,12.08,0,0,0,77.66,663.81Z" transform="translate(-29.35 -323.53)" style="fill:#f5df7b"/><path d="M909.93,651.72H519.49v.11h0l0,24.05H909.93a12.08,12.08,0,0,0,0-24.17Z" transform="translate(-29.35 -323.53)" style="fill:#f5df7b"/><rect x="776.45" y="610.99" width="2.71" height="8.41" transform="translate(1722.29 104.33) rotate(130.77)" style="fill:#f3d3bc"/><path d="M782.43,616.28l2.44,2-5.85,7.3s-2.18-2.36-.84-4Z" transform="translate(-29.35 -323.53)" style="fill:#5fb0e2"/><rect x="779.29" y="616.93" width="3.85" height="1.71" transform="translate(1722.58 71.39) rotate(128.73)" style="fill:#5fb0e2"/><path d="M772.08,598.33l-3.85,6.38s-2.25,2.76,1.13,6.79l8.73,7.07,2.82-3.26L774,608.58s-.89-1,1.63-3.87l3.34-3.86-6.39-3.06Z" transform="translate(-29.35 -323.53)" style="fill:#f9af9a"/><path d="M760.34,599.72a1.66,1.66,0,0,1-.34-3.28c4.92-1,8-2.74,8.82-4.94s-.78-4.57-.8-4.59a1.66,1.66,0,0,1,2.67-2c.11.15,2.74,3.77,1.24,7.72-1.28,3.37-5.06,5.73-11.25,7A1.66,1.66,0,0,1,760.34,599.72Z" transform="translate(-29.35 -323.53)" style="fill:#e9ab97"/><path d="M746.49,637.71a12.22,12.22,0,1,1,.23,0Zm0-21.95h-.18a9.73,9.73,0,1,0,.18,0Z" transform="translate(-29.35 -323.53)" style="fill:#606060"/><path d="M793,636.86a12.22,12.22,0,1,1,.23,0Zm0-21.95h-.18a9.73,9.73,0,1,0,.18,0Z" transform="translate(-29.35 -323.53)" style="fill:#606060"/><circle cx="772.76" cy="625.57" r="4.09" transform="translate(-40.58 -309.41) rotate(-1.04)" style="fill:#8cc8ed"/><path d="M746.49,626.89a1.24,1.24,0,0,0,.57-.14l3.73-1.91a1.24,1.24,0,0,0,.63-.77l5.81-20.7a1.24,1.24,0,0,0-1-1.57,5.38,5.38,0,0,1-2.95-1.15.45.45,0,0,1,.17-.24c1.11-1,5.24-1.2,7.81-1a1.24,1.24,0,0,0,.19-2.48c-1.21-.09-7.39-.46-9.69,1.65a2.83,2.83,0,0,0-1,2.1c0,1.93,2.15,2.87,3.69,3.3l-5.31,18.91-3.24,1.66a1.24,1.24,0,0,0,.57,2.35Z" transform="translate(-29.35 -323.53)" style="fill:#8cc8ed"/><path d="M773.09,628a1.24,1.24,0,0,0,1.2-.92l5.58-20.83a1.24,1.24,0,0,0-2.4-.64l-5.58,20.83a1.24,1.24,0,0,0,1.2,1.57Z" transform="translate(-29.35 -323.53)" style="fill:#8cc8ed"/><path d="M768.66,626.69l-15.4-13.44a1.24,1.24,0,0,1-.43-.91l0-2.17a1.24,1.24,0,0,1,1.22-1.27l23.25-.42a1.24,1.24,0,0,1,.87.33l16.19,15.08a1.24,1.24,0,0,1-.8,2.15l-24,1h0A1.24,1.24,0,0,1,768.66,626.69ZM776.81,611l-21.5.39v.38l14.61,12.76,20.53-.82Z" transform="translate(-29.35 -323.53)" style="fill:#8cc8ed"/><rect x="771.95" y="602.23" width="11.8" height="4.19" rx="1.17" ry="1.17" transform="translate(-40.19 -309.32) rotate(-1.04)" style="fill:#8cc8ed"/><rect x="771.89" y="612.29" width="2.71" height="8.41" transform="translate(1715.67 476.3) rotate(152.12)" style="fill:#f3d3bc"/><path d="M777.06,619.48l1.44,2.83-8.27,4.37s-1.06-3,.82-4Z" transform="translate(-29.35 -323.53)" style="fill:#5fb0e2"/><rect x="773.42" y="619.52" width="3.85" height="1.71" transform="translate(1721.45 482.65) rotate(152.12)" style="fill:#5fb0e2"/><polygon points="739.05 260.86 742.15 259.58 739.69 256.88 737.38 258.11 739.05 260.86" style="fill:#f3d3bc"/><path d="M780.64,595.71l-2.93-2.79-5.26,4.61a17,17,0,0,0,.64,2.13l-4.88,3.76s-3.1,1.76-1.41,6.74l5.56,9.76,3.81-2-4-8.79s-.48-1.22,2.92-3l4.51-2.39h0C784.11,601,780.64,595.71,780.64,595.71Z" transform="translate(-29.35 -323.53)" style="fill:#f6906b"/><circle cx="766.26" cy="578.51" r="4.44" transform="translate(-210.93 101.93) rotate(-27.88)" style="fill:#f3d3bc"/><path d="M781.33,595.87l-5.66-10s-2.2-5.06-6.62-2.52h0c-3,1.73-1,6.15-1,6.15l5.3,10.55,3.63-1.92h0Z" transform="translate(-29.35 -323.53)" style="fill:#5fb0e2"/><path d="M777.28,585.78" transform="translate(-29.35 -323.53)" style="fill:none;stroke:#fff;stroke-miterlimit:10;stroke-width:3.28073270543242px"/><path d="M761.88,600.23a1.66,1.66,0,0,1-.34-3.28c4.92-1,8-2.74,8.82-4.94s-.78-4.57-.8-4.59a1.66,1.66,0,0,1,2.67-2c.11.15,2.74,3.77,1.24,7.72-1.28,3.37-5.06,5.73-11.25,7A1.66,1.66,0,0,1,761.88,600.23Z" transform="translate(-29.35 -323.53)" style="fill:#f3d3bc"/><path d="M771.05,573.23a1.87,1.87,0,0,0-3.69.48,5.29,5.29,0,0,0-3.32.64c-2,1.07-3.11,3-2.43,4.24s2.61,1.42,4.52.55l.13,0c3.34.69,3.63,3.36,4.41.71a5.12,5.12,0,0,0,.21-1.2h0a4.62,4.62,0,0,0-1.08-3.31A1.86,1.86,0,0,0,771.05,573.23Z" transform="translate(-29.35 -323.53)" style="fill:#f6906b"/><path d="M228.26,558.39c-1.72,0-3.49-1.25-5.3-3.73a1.26,1.26,0,1,1,2-1.48c1.37,1.88,2.64,2.85,3.48,2.67,1.35-.3,2.54-3.38,2.92-5.37a1.26,1.26,0,0,1,2.47.47c-.13.67-1.35,6.58-4.85,7.36A3.55,3.55,0,0,1,228.26,558.39Z" transform="translate(-29.35 -323.53)" style="fill:#9c886d"/><path d="M247.06,565.83a1.26,1.26,0,0,1-1.21-1.6c2.36-8.32.66-13,.64-13.07a1.26,1.26,0,0,1,2.35-.91c.08.22,2,5.44-.57,14.66A1.26,1.26,0,0,1,247.06,565.83Z" transform="translate(-29.35 -323.53)" style="fill:#9c886d"/><path d="M232.28,550.71" transform="translate(-29.35 -323.53)" style="fill:none;stroke:#9b886e;stroke-linecap:round;stroke-miterlimit:10;stroke-width:4.12503602867653px"/><path d="M235.81,540.17s-1.88-6.93,4.08-7c6.34-.08,4.14,7,4.14,7l-8.1-1Z" transform="translate(-29.35 -323.53)" style="fill:#474747"/><path d="M236.71,590.31h-1.23s-1.33-.68-1.33-1.15a16,16,0,0,1,.89-2.58h1.66Z" transform="translate(-29.35 -323.53)" style="fill:#f6906b"/><path d="M236.71,590.31h1.23s1.33-.68,1.33-1.15a16,16,0,0,0-.89-2.58h-1.66Z" transform="translate(-29.35 -323.53)" style="fill:#f6906b"/><path d="M234,552h-3.69s.34-8.76,9.61-8.79L236,552Z" transform="translate(-29.35 -323.53)" style="fill:#5fb0e2"/><path d="M245.9,552h3.45s-.1-8.76-9.37-8.79l4,8.79Z" transform="translate(-29.35 -323.53)" style="fill:#5fb0e2"/><polygon points="208.45 263.01 206.13 263.01 206.13 258.13 208.95 258.13 208.45 263.01" style="fill:#dddddc"/><polygon points="213.01 267.77 215.33 267.77 215.33 262.9 212.51 262.9 213.01 267.77" style="fill:#dddddc"/><polygon points="205.32 241.03 210.67 241.03 209.33 261.11 205.32 261.11 205.32 241.03" style="fill:#bcbcbb"/><polygon points="216.02 241.03 210.67 241.03 212.01 265.67 216.02 265.67 216.02 241.03" style="fill:#bcbcbb"/><rect x="205.32" y="238.28" width="10.69" height="2.75" style="fill:#bcbcbb"/><path d="M239,543.22h0c-4,0-5,5.1-5,5.1V563h11V548.32S245,543.26,239,543.22Z" transform="translate(-29.35 -323.53)" style="fill:#5fb0e2"/><path d="M240,543.14v1.47a5.71,5.71,0,0,0,3-1,13.34,13.34,0,0,0-1.77-.38C240.58,543.16,240,543.14,240,543.14Z" transform="translate(-29.35 -323.53)" style="fill:#829dd1"/><path d="M240,543.14v1.47a5.84,5.84,0,0,1-3-1,13.34,13.34,0,0,1,1.77-.38C239.36,543.16,240,543.14,240,543.14Z" transform="translate(-29.35 -323.53)" style="fill:#829dd1"/><circle cx="210.57" cy="214.92" r="4.45" style="fill:#87775e"/><polygon points="212.63 220.16 208.51 220.16 209.26 217.25 211.88 217.25 212.63 220.16" style="fill:#87775e"/><path d="M240,543.22" transform="translate(-29.35 -323.53)" style="fill:none"/><rect x="205.58" y="262.37" width="3.56" height="1.55" style="fill:#f6906b"/><path d="M243.63,595.08H242.4s-1.33-.68-1.33-1.15a16,16,0,0,1,.89-2.58h1.66Z" transform="translate(-29.35 -323.53)" style="fill:#f6906b"/><path d="M243.63,595.08h1.23s1.33-.68,1.33-1.15a16,16,0,0,0-.89-2.58h-1.66Z" transform="translate(-29.35 -323.53)" style="fill:#f6906b"/><rect x="212.5" y="267.13" width="3.56" height="1.55" style="fill:#f6906b"/><ellipse cx="210.74" cy="211.41" rx="3.25" ry="1.62" style="fill:#474747"/><ellipse cx="207.36" cy="266.23" rx="1.51" ry="0.9" style="fill:#f6906b"/><ellipse cx="214.28" cy="270.99" rx="1.51" ry="0.9" style="fill:#f6906b"/><path d="M210.41,539.38a1,1,0,0,1-1-.66c-3.64-9.2,3.65-15.36,3.71-15.43a1,1,0,0,1,1.41,1.53c-.23.21-6.3,5.29-3.19,13.14a1,1,0,0,1-1,1.42Z" transform="translate(-29.35 -323.53)" style="fill:#cdbc9d"/><path d="M223.45,539.24a1,1,0,0,1-1-1.32c1.91-6.73-3.8-13.89-3.85-14a1,1,0,0,1,1.63-1.28c.23.29,6.41,8,4.21,15.81A1,1,0,0,1,223.45,539.24Z" transform="translate(-29.35 -323.53)" style="fill:#cdbc9d"/><path d="M210.2,527.49" transform="translate(-29.35 -323.53)" style="fill:none;stroke:#9b886e;stroke-linecap:round;stroke-miterlimit:10;stroke-width:3.39762574982237px"/><path d="M213.86,561.7h-1s-1.09-.56-1.09-.95a13.22,13.22,0,0,1,.73-2.13h1.37Z" transform="translate(-29.35 -323.53)" style="fill:#797979"/><path d="M213.86,561.7h1s1.09-.56,1.09-.95a13.22,13.22,0,0,0-.73-2.13h-1.37Z" transform="translate(-29.35 -323.53)" style="fill:#797979"/><polygon points="185.4 235.06 183.49 235.06 183.49 231.05 185.81 231.05 185.4 235.06" style="fill:#dddddc"/><polygon points="189.16 237.4 191.06 237.4 191.06 233.38 188.75 233.38 189.16 237.4" style="fill:#dddddc"/><polygon points="182.82 215.37 187.23 215.37 186.13 233.38 182.82 233.38 182.82 215.37" style="fill:#8cc8ed"/><polygon points="191.63 215.37 187.23 215.37 188.33 235.67 191.63 235.67 191.63 215.37" style="fill:#8cc8ed"/><rect x="182.83" y="213.11" width="8.81" height="2.27" style="fill:#8cc8ed"/><path d="M216.34,521.14c-4.6,0-4.41,5.14-4.41,5.14L212,537h9V525.25a4.24,4.24,0,0,0-4.53-4.13l.8-.07" transform="translate(-29.35 -323.53)" style="fill:#f6906b"/><circle cx="187.43" cy="193.31" r="3.92" style="fill:#cdbc9d"/><polygon points="188.22 198.18 186.11 198.18 186.06 195.78 188.23 195.78 188.22 198.18" style="fill:#cdbc9d"/><path d="M216.54,521.33" transform="translate(-29.35 -323.53)" style="fill:none"/><rect x="183.04" y="234.54" width="2.94" height="1.27" style="fill:#5f6161"/><path d="M219.55,564h-1s-1.09-.56-1.09-.95a13.22,13.22,0,0,1,.73-2.13h1.37Z" transform="translate(-29.35 -323.53)" style="fill:#797979"/><path d="M219.55,564h1s1.09-.56,1.09-.95a13.22,13.22,0,0,0-.73-2.13h-1.37Z" transform="translate(-29.35 -323.53)" style="fill:#797979"/><rect x="188.73" y="236.87" width="2.94" height="1.27" style="fill:#5f6161"/><ellipse cx="184.5" cy="237.72" rx="1.25" ry="0.74" style="fill:#797979"/><ellipse cx="190.2" cy="240.05" rx="1.25" ry="0.74" style="fill:#797979"/></svg>